<svg width="17" height="16" viewBox="0 0 17 16" fill="none" xmlns="http://www.w3.org/2000/svg">
<g clip-path="url(#clip0_144_2163)">
<path d="M8.47311 5.18949e-05C8.54476 -0.0169453 8.61045 0.0340462 8.65224 0.079372C8.77167 0.209684 8.80152 0.390987 8.8075 0.555293C8.81944 0.838579 8.7239 1.11053 8.68807 1.38815C8.67613 1.45048 8.67613 1.53546 8.62239 1.58079C8.55671 1.60912 8.46714 1.61478 8.40145 1.57512C8.35368 1.51847 8.34771 1.44481 8.3298 1.37682C8.28203 1.1162 8.19843 0.861242 8.2044 0.600618C8.2044 0.447644 8.22232 0.283338 8.30592 0.147361C8.34771 0.0850377 8.40145 0.0227148 8.47311 0.00571762V5.18949e-05Z" fill="#D8B880"/>
<path d="M5.91148 0.453336C6.28766 0.198379 6.78924 0.113393 7.23708 0.232373C7.46399 0.28903 7.66701 0.391013 7.86406 0.515659C7.99542 0.600645 8.12082 0.702628 8.20442 0.83294C8.1447 0.781948 8.09096 0.725291 8.01931 0.691297C7.94765 0.651636 7.86406 0.640305 7.78046 0.657302C7.69089 0.674299 7.61924 0.742288 7.52967 0.759285C7.46399 0.770617 7.41622 0.708294 7.36845 0.674299C7.255 0.560985 7.0878 0.498662 6.92061 0.492996C6.65788 0.492996 6.38917 0.583648 6.18615 0.742288C5.98313 0.906594 5.87565 1.13889 5.78011 1.37118C5.72637 1.51849 5.64874 1.65447 5.60694 1.80178C5.58306 1.89243 5.57709 1.98308 5.56515 2.07373C5.49349 1.90376 5.43975 1.72246 5.42781 1.53549C5.41587 1.34285 5.41587 1.14455 5.49349 0.957586C5.57112 0.753619 5.72637 0.583648 5.91148 0.459002V0.453336Z" fill="#D8B880"/>
<path d="M9.94203 0.204015C10.2884 0.147358 10.6466 0.204015 10.9571 0.356989C11.202 0.481635 11.4109 0.67427 11.5184 0.91223C11.5602 1.00288 11.5841 1.10486 11.5901 1.20685C11.602 1.40515 11.5901 1.60345 11.5423 1.79608C11.5184 1.88107 11.4886 1.97172 11.4408 2.04537C11.4289 1.96039 11.4229 1.8754 11.405 1.79608C11.3751 1.64877 11.3035 1.50713 11.2438 1.36549C11.1661 1.17285 11.0825 0.980219 10.9392 0.821579C10.7481 0.611947 10.4556 0.492967 10.163 0.481635C9.97786 0.47597 9.78678 0.532627 9.65542 0.662938C9.60765 0.696933 9.56585 0.759256 9.49419 0.747924C9.40462 0.730927 9.33297 0.662938 9.23743 0.645941C9.14786 0.628944 9.05232 0.645941 8.9747 0.696933C8.91499 0.736593 8.86722 0.781919 8.81348 0.821579C8.8911 0.696933 9.01053 0.611947 9.13592 0.526961C9.37477 0.368321 9.64944 0.243675 9.94203 0.192683V0.204015Z" fill="#D8B880"/>
<path d="M4.87846 0.708308C4.95609 0.691311 5.03968 0.691311 5.11134 0.725305C5.15314 0.742303 5.18896 0.787628 5.17702 0.832954C5.15911 0.895277 5.10537 0.940603 5.0576 0.980263C4.974 1.04259 4.86055 1.09924 4.74709 1.07658C4.67544 1.05958 4.63961 0.985929 4.65156 0.923606C4.6635 0.815957 4.77098 0.742303 4.87249 0.713974L4.87846 0.708308Z" fill="#D8B880"/>
<path d="M11.9543 0.708304C12.0857 0.67431 12.235 0.719636 12.3126 0.821619C12.3544 0.87261 12.3664 0.946265 12.3365 1.00859C12.3186 1.05391 12.2589 1.07658 12.2111 1.07658C12.0977 1.07658 11.9961 1.02558 11.9185 0.957596C11.8767 0.917936 11.8289 0.866944 11.8349 0.804621C11.8528 0.759296 11.9006 0.725301 11.9484 0.71397L11.9543 0.708304Z" fill="#D8B880"/>
<path d="M7.30276 1.0199C7.44607 0.951914 7.61326 0.900923 7.77448 0.929251C7.89391 0.946248 7.98944 1.0199 8.06707 1.09922C8.12081 1.15021 8.15664 1.21254 8.19247 1.27486C8.0193 1.25786 7.85211 1.21254 7.67297 1.22953C7.46995 1.24653 7.2729 1.35985 7.16542 1.52415C7.08779 1.64313 7.05197 1.77911 7.01614 1.91509C6.99823 1.98874 6.98031 2.0624 6.93254 2.12472C6.90866 2.13038 6.89074 2.13038 6.86686 2.12472C6.80715 2.06806 6.78326 1.98874 6.77729 1.91509C6.76535 1.75078 6.79521 1.58081 6.87283 1.4335C6.9624 1.25786 7.12362 1.11622 7.30276 1.02557V1.0199Z" fill="#D8B880"/>
<path d="M9.14188 0.957518C9.25534 0.900861 9.3867 0.912192 9.50613 0.940521C9.72706 0.997178 9.93008 1.12749 10.0734 1.30313C10.2227 1.50143 10.2884 1.75639 10.2346 1.99435C10.2227 2.05667 10.1809 2.11333 10.1152 2.13599C10.0017 1.97168 10.0017 1.76772 9.91217 1.59774C9.81066 1.38811 9.57778 1.2408 9.33296 1.22947C9.16577 1.21248 9.00455 1.2578 8.84332 1.28046C8.90303 1.14449 9.00455 1.02551 9.14188 0.957518Z" fill="#D8B880"/>
<path d="M4.6396 1.49017C4.92621 1.50717 5.19492 1.37119 5.40391 1.19556C5.38599 1.28621 5.39197 1.38253 5.386 1.47318C5.386 1.52417 5.33823 1.5525 5.29643 1.58083C5.08146 1.72813 4.80082 1.77913 4.54406 1.73947C4.37089 1.7168 4.21564 1.62615 4.0365 1.62615C3.83348 1.62615 3.62449 1.7168 3.49313 1.86978C3.43938 1.9321 3.39759 2.00576 3.35579 2.07941C3.40356 2.11907 3.46327 2.15873 3.49313 2.21539C3.52298 2.29471 3.48118 2.38536 3.42744 2.44768C3.36176 2.52134 3.26025 2.58932 3.15277 2.57799C3.08111 2.561 3.02737 2.50434 2.96169 2.48168C2.86018 2.47034 2.76464 2.52134 2.69299 2.58932C2.62133 2.65731 2.56759 2.74796 2.57356 2.84428C2.59147 2.91794 2.65716 2.97459 2.6691 3.04825C2.68104 3.16156 2.63327 3.28054 2.54371 3.35986C2.47802 3.41652 2.37651 3.42785 2.29889 3.38253C2.23917 3.3372 2.20335 3.26355 2.16752 3.20122C2.02421 3.24655 1.88687 3.33153 1.80328 3.45051C1.72565 3.55816 1.68385 3.69414 1.69579 3.82445C1.70177 3.95476 1.77342 4.07374 1.79133 4.19839C1.83313 4.45901 1.76745 4.73663 1.6122 4.95193C1.58831 4.98026 1.56443 5.01425 1.52263 5.01425C1.42709 5.02559 1.32558 5.02559 1.23004 5.03125C1.31961 4.90661 1.40918 4.78196 1.46889 4.64598C1.52263 4.527 1.54054 4.39102 1.5286 4.26071C1.51666 4.12474 1.45098 4.00009 1.43903 3.86411C1.40321 3.60915 1.48083 3.3372 1.67191 3.14457C1.79731 3.01425 1.97047 2.93493 2.14961 2.90661C2.15558 2.77063 2.16752 2.62332 2.23917 2.49867C2.33471 2.30604 2.52579 2.17573 2.72881 2.1134C2.83032 2.08508 2.9378 2.07941 3.03931 2.07374C3.08708 1.86978 3.21845 1.68281 3.40356 1.55816C3.59464 1.42785 3.83945 1.36553 4.07233 1.38253C4.26341 1.39386 4.44255 1.49017 4.63362 1.49017H4.6396Z" fill="#D8B880"/>
<path d="M11.6319 1.20689C11.7095 1.26355 11.7931 1.32587 11.8827 1.37119C12.0559 1.46751 12.2648 1.50717 12.4679 1.48451C12.6112 1.46751 12.7485 1.39952 12.8918 1.38253C13.071 1.35986 13.2561 1.38253 13.4233 1.44485C13.6143 1.5185 13.7815 1.64881 13.883 1.81879C13.9308 1.89811 13.9547 1.98309 13.9786 2.06808C14.092 2.06808 14.2115 2.07374 14.3189 2.11907C14.5518 2.19839 14.7429 2.37969 14.8145 2.60632C14.8444 2.70264 14.8504 2.79896 14.8623 2.90094C14.9519 2.91794 15.0474 2.9406 15.131 2.98026C15.3281 3.08224 15.4773 3.25788 15.543 3.46185C15.5848 3.59216 15.5908 3.72813 15.5729 3.85845C15.5609 4.00009 15.4833 4.1304 15.4833 4.27204C15.4654 4.55533 15.6147 4.81595 15.7998 5.02559C15.6923 5.01992 15.5848 5.02559 15.4773 5.01425C15.4296 4.98593 15.3997 4.9406 15.3758 4.89527C15.2325 4.67998 15.1848 4.41369 15.2325 4.1644C15.2564 4.04542 15.3161 3.93777 15.3221 3.81312C15.334 3.63182 15.2504 3.45618 15.1131 3.33153C15.0415 3.26355 14.9459 3.22389 14.8563 3.18423C14.8145 3.24655 14.7787 3.32587 14.719 3.37119C14.6414 3.41085 14.5279 3.39952 14.4622 3.33153C14.3906 3.25788 14.3488 3.1559 14.3548 3.05391C14.3607 2.97459 14.4264 2.91227 14.4443 2.83295C14.4503 2.74796 14.4025 2.66864 14.3488 2.60632C14.2771 2.527 14.1816 2.46468 14.0681 2.46468C13.9786 2.48168 13.9248 2.57799 13.8293 2.57799C13.7278 2.57799 13.6442 2.51 13.5785 2.44202C13.5248 2.38536 13.4949 2.29471 13.5248 2.21539C13.5606 2.15873 13.6203 2.12474 13.674 2.07941C13.6263 1.98876 13.5725 1.89811 13.5009 1.81879C13.3516 1.67148 13.1247 1.59216 12.9097 1.62615C12.7605 1.64881 12.6231 1.72247 12.4679 1.7338C12.2111 1.76779 11.9364 1.7168 11.7215 1.57516C11.6856 1.54683 11.6379 1.51284 11.6379 1.46185C11.6319 1.37119 11.6379 1.28621 11.6379 1.19556L11.6319 1.20689Z" fill="#D8B880"/>
<path d="M5.79802 1.4391C5.84579 1.41643 5.89953 1.41077 5.95328 1.41077C6.06076 1.41077 6.17421 1.41643 6.26975 1.47309C6.40111 1.54674 6.47874 1.68839 6.49665 1.83003C6.51457 1.99434 6.47277 2.15864 6.39514 2.30595C6.3414 2.41927 6.26378 2.52125 6.23392 2.64589C6.21004 2.73655 6.21004 2.84419 6.26378 2.92918C6.30558 2.99717 6.37723 3.05949 6.46083 3.07082C6.52054 3.05949 6.57428 3.0255 6.63399 3.00283C6.92658 2.85553 7.27291 2.82153 7.59535 2.90085C7.78046 2.94618 7.96557 3.04816 8.07305 3.2068C8.15665 3.32578 8.18053 3.47876 8.15665 3.6204C8.11485 3.84136 7.89989 4.034 7.66104 4.034C7.4819 4.034 7.31471 3.94901 7.20723 3.81303C7.37442 3.72805 7.54758 3.64873 7.70284 3.53541C7.73866 3.50708 7.77449 3.47876 7.7924 3.43343C7.80435 3.3881 7.76255 3.34844 7.72672 3.32012C7.62521 3.24646 7.49982 3.21813 7.37442 3.21247C7.15349 3.20113 6.92658 3.26346 6.7355 3.36544C6.56234 3.46176 6.41306 3.60907 6.34737 3.79604C6.30558 3.90935 6.30558 4.034 6.2996 4.15298C6.22198 4.10765 6.13241 4.06799 6.0727 4C5.99507 3.90368 6.00104 3.76771 6.02493 3.65439C6.07867 3.44476 6.23392 3.26912 6.41306 3.14448C6.25781 3.14448 6.09061 3.07649 5.99507 2.96317C5.90551 2.84419 5.91148 2.69122 5.93536 2.54958C5.97119 2.35694 6.16227 2.2323 6.21004 2.04533C6.22795 1.97167 6.23392 1.89235 6.21004 1.82436C6.17421 1.73938 6.09658 1.67706 6.00702 1.64306C5.92939 1.60907 5.83982 1.59774 5.75623 1.56941C5.76817 1.52408 5.78011 1.46742 5.82191 1.4391H5.79802Z" fill="#D8B880"/>
<path d="M10.7422 1.48446C10.8735 1.40514 11.0348 1.40514 11.184 1.42214C11.2557 1.43347 11.2617 1.51279 11.2855 1.56378C11.184 1.59211 11.0766 1.61478 10.987 1.66577C10.9153 1.70543 10.8556 1.76775 10.8377 1.84707C10.8138 1.94905 10.8377 2.06237 10.8855 2.15302C10.9392 2.255 11.0168 2.33432 11.0706 2.43631C11.1243 2.54395 11.1363 2.66293 11.1243 2.77625C11.1184 2.85557 11.0885 2.93489 11.0228 2.99155C10.9213 3.08786 10.772 3.13319 10.6287 3.14452C10.8019 3.2635 10.9512 3.42214 11.0109 3.62044C11.0407 3.72809 11.0467 3.8414 11.0049 3.94339C10.9571 4.0397 10.8437 4.0907 10.7541 4.14169C10.7481 4.0567 10.7481 3.96605 10.7302 3.88106C10.7004 3.73942 10.6227 3.61478 10.5153 3.51279C10.3302 3.33715 10.0853 3.23517 9.82857 3.20684C9.65541 3.18985 9.4703 3.20684 9.32102 3.2975C9.27922 3.32582 9.23145 3.36548 9.23742 3.42214C9.24937 3.46747 9.29116 3.50146 9.32699 3.52979C9.45239 3.62044 9.58972 3.69976 9.73303 3.76208C9.76289 3.77908 9.80469 3.78475 9.81066 3.81874C9.69721 3.94339 9.52404 4.03404 9.35088 4.02271C9.18368 4.01138 9.02843 3.91506 8.93886 3.77908C8.85527 3.6601 8.84332 3.50713 8.87318 3.36548C8.90304 3.22384 9.00455 3.10486 9.12397 3.02554C9.27922 2.92356 9.45836 2.8669 9.64346 2.85557C9.84051 2.83857 10.0495 2.85557 10.2346 2.92356C10.3242 2.95189 10.4018 2.99721 10.4854 3.03687C10.5212 3.0482 10.5571 3.07087 10.5929 3.05387C10.6765 3.02554 10.7362 2.96322 10.772 2.8839C10.8138 2.79325 10.8078 2.6856 10.784 2.58928C10.7422 2.44197 10.6407 2.32299 10.5869 2.18701C10.5212 2.02837 10.5033 1.85274 10.563 1.68843C10.5929 1.59778 10.6586 1.51279 10.7481 1.4618L10.7422 1.48446Z" fill="#D8B880"/>
<path d="M7.40429 1.65446C7.55954 1.46749 7.89989 1.45049 8.07306 1.62613C8.18651 1.74511 8.2104 1.91508 8.19845 2.06805C8.18651 2.24936 8.07903 2.41933 7.91184 2.50998C7.81033 2.56664 7.6909 2.59497 7.57745 2.56664C7.46997 2.53831 7.42817 2.391 7.48788 2.30601C7.55954 2.22103 7.70285 2.23236 7.7745 2.14171C7.87004 1.9944 7.70882 1.76777 7.52968 1.8131C7.42817 1.84143 7.36846 1.93208 7.29083 1.9944C7.29083 1.86975 7.32069 1.74511 7.40429 1.64879V1.65446Z" fill="#D8B880"/>
<path d="M8.99858 1.57511C9.10009 1.50712 9.23146 1.50145 9.35088 1.51278C9.45239 1.52411 9.54196 1.56944 9.60764 1.64309C9.70318 1.74508 9.73901 1.87539 9.74498 2.01137C9.66736 1.94904 9.61361 1.86972 9.52405 1.83006C9.39268 1.77341 9.23146 1.88105 9.21952 2.01137C9.21354 2.06802 9.21952 2.13601 9.26729 2.17567C9.33894 2.22666 9.43448 2.23233 9.50613 2.28332C9.58973 2.36264 9.57182 2.53261 9.45239 2.56661C9.27326 2.61193 9.08218 2.52695 8.96873 2.39663C8.83139 2.24366 8.80153 2.02836 8.83736 1.84139C8.86124 1.73941 8.90901 1.64309 8.99858 1.58077V1.57511Z" fill="#D8B880"/>
<path d="M8.46117 2.02838C8.497 2.00006 8.54477 2.01139 8.57462 2.04538C8.62836 2.09637 8.63434 2.17569 8.64031 2.24368C8.64031 2.33433 8.65225 2.42499 8.63433 2.51564C8.61642 2.60629 8.48506 2.62895 8.4134 2.57229C8.37757 2.54963 8.3716 2.49864 8.36563 2.45898C8.36563 2.37399 8.36563 2.28901 8.3716 2.20402C8.37757 2.1417 8.39549 2.06805 8.4552 2.02838H8.46117Z" fill="#D8B880"/>
<path d="M6.80714 2.26065C6.84894 2.22665 6.90268 2.19832 6.95642 2.17566C6.96836 2.25498 6.98031 2.33997 6.95642 2.41929C6.92059 2.54393 6.83103 2.64025 6.74146 2.7309C6.69369 2.77623 6.64592 2.82722 6.58024 2.85555C6.52052 2.87821 6.44887 2.83855 6.43693 2.77623C6.42499 2.70824 6.46081 2.64591 6.49067 2.58926C6.57427 2.45895 6.68772 2.35696 6.80714 2.25498V2.26065Z" fill="#D8B880"/>
<path d="M10.0734 2.17004C10.2346 2.26636 10.3779 2.38534 10.4914 2.53265C10.5451 2.6063 10.6048 2.69129 10.581 2.78194C10.569 2.84426 10.4854 2.88959 10.4257 2.8556C10.36 2.8216 10.3123 2.76494 10.2585 2.71395C10.163 2.61764 10.0734 2.50432 10.0555 2.36834C10.0436 2.30036 10.0555 2.23803 10.0734 2.17571V2.17004Z" fill="#D8B880"/>
<path d="M2.99156 3.02552C2.78256 3.25215 2.61537 3.51277 2.54372 3.80739C2.50789 3.9717 2.50789 4.14167 2.54372 4.30031C2.57954 4.44762 2.6512 4.58926 2.76465 4.70258C2.9199 4.86688 3.15875 4.95753 3.39163 4.9462C3.63047 4.9292 3.86335 4.83855 4.03054 4.67991C4.12011 4.59493 4.16191 4.47028 4.144 4.3513C4.13205 4.27198 4.08429 4.20399 4.04249 4.136C4.10817 4.10201 4.17982 4.07368 4.23954 4.02269C4.31119 3.9547 4.35896 3.86971 4.40076 3.78473C4.47241 3.83572 4.55004 3.89238 4.64558 3.89238C4.78889 3.90371 4.93817 3.84705 5.02773 3.73374C5.2009 3.51844 5.30838 3.23515 5.2427 2.96886C5.17701 2.70824 4.96205 2.49294 4.69335 2.40229C4.33508 2.28331 3.93501 2.3513 3.61256 2.52694C3.37968 2.65725 3.17666 2.82722 2.99753 3.01419L2.99156 3.02552ZM4.35299 2.60059C4.51421 2.61192 4.68141 2.65725 4.81277 2.75923C4.92622 2.84988 4.98594 2.99153 4.99788 3.13317C5.00385 3.21249 4.97996 3.29181 4.96205 3.36547C4.99191 3.20683 4.94414 3.04819 4.86651 2.90654C4.79486 2.78756 4.66946 2.70258 4.53212 2.66292C4.35896 2.60626 4.16788 2.61192 3.98875 2.64592C4.10817 2.62326 4.23357 2.60059 4.35299 2.60626V2.60059ZM4.0186 2.73657C4.22759 2.70824 4.46047 2.74224 4.62766 2.87255C4.765 2.97453 4.81874 3.15583 4.8068 3.32014C4.80083 3.41646 4.75306 3.51844 4.65752 3.5751C4.59781 3.60909 4.52018 3.60343 4.44853 3.60343C4.42464 3.51277 4.4127 3.41079 4.35896 3.32581C4.26939 3.1785 4.1022 3.07085 3.92306 3.06518C3.7081 3.05385 3.49911 3.15583 3.37371 3.32014C3.2722 3.44479 3.23637 3.60343 3.25429 3.7564C3.26623 3.91504 3.37968 4.05668 3.52896 4.13034C3.60659 4.17 3.70213 4.17 3.77975 4.20966C3.82155 4.24365 3.82155 4.30031 3.80364 4.34564C3.77378 4.43629 3.68421 4.49861 3.58868 4.52694C3.37371 4.5836 3.12889 4.49861 3.00947 4.32297C2.90199 4.17566 2.8781 3.98303 2.90199 3.80739C2.94379 3.48445 3.12292 3.16717 3.3976 2.97453C3.57076 2.84988 3.78573 2.77056 4.00069 2.74224L4.0186 2.73657ZM3.92903 3.39379C4.03054 3.44479 4.09623 3.5581 4.08429 3.67141C4.07234 3.76773 3.98277 3.84705 3.88126 3.85272C3.71407 3.86971 3.54688 3.71674 3.57076 3.5581C3.57076 3.48445 3.63047 3.41646 3.70213 3.38813C3.77378 3.36547 3.85738 3.36547 3.92903 3.39946V3.39379ZM2.78256 3.85272C2.77062 4.01702 2.78256 4.187 2.85422 4.3343C2.90796 4.45895 3.00947 4.56093 3.14084 4.61759C3.25429 4.67425 3.38565 4.68558 3.51105 4.69691C3.3976 4.70258 3.2722 4.71391 3.16472 4.67425C3.03933 4.62892 2.9199 4.54394 2.86019 4.43062C2.77062 4.24932 2.75868 4.04535 2.78854 3.84705L2.78256 3.85272Z" fill="#D8B880"/>
<path d="M11.7871 3.00287C11.7394 3.26915 11.8289 3.54677 12.0081 3.75074C12.1156 3.88105 12.3126 3.92638 12.4738 3.87539C12.5276 3.85839 12.5694 3.8244 12.6112 3.7904C12.653 3.86406 12.6948 3.94338 12.7604 4.0057C12.8202 4.06236 12.8978 4.10202 12.9694 4.14168C12.9276 4.19833 12.8858 4.26066 12.8739 4.32864C12.856 4.4193 12.8679 4.51561 12.9157 4.58927C12.9694 4.66859 13.0471 4.73091 13.1307 4.78757C13.3277 4.91221 13.5725 4.97454 13.8054 4.93488C14.0502 4.89522 14.2712 4.74224 14.3846 4.53261C14.51 4.31731 14.5219 4.06236 14.4742 3.8244C14.4324 3.60343 14.313 3.39947 14.1756 3.2125C14.0263 3.00853 13.8353 2.83289 13.6322 2.67425C13.4949 2.57227 13.3397 2.48728 13.1784 2.42496C12.9754 2.35131 12.7545 2.32864 12.5455 2.35131C12.3843 2.3683 12.229 2.43063 12.0976 2.52128C11.9364 2.63459 11.823 2.80457 11.7871 2.99153V3.00287ZM12.9097 2.61193C12.7545 2.61193 12.5992 2.61193 12.4559 2.66859C12.3186 2.71391 12.1932 2.81023 12.1335 2.93488C12.0618 3.06519 12.0558 3.2125 12.0558 3.35414C12.0379 3.26915 12.02 3.1785 12.032 3.09352C12.0439 2.97454 12.0976 2.85556 12.1872 2.76491C12.3783 2.6006 12.6589 2.5666 12.9097 2.60626V2.61193ZM13.0351 2.74224C13.3217 2.7819 13.5785 2.92921 13.7755 3.12751C13.9427 3.30315 14.0443 3.52978 14.0861 3.76207C14.1219 3.9717 14.098 4.204 13.9487 4.3683C13.7935 4.54961 13.4889 4.59493 13.2859 4.45896C13.2023 4.40796 13.1486 4.29465 13.1904 4.204C13.2381 4.17567 13.2979 4.17 13.3516 4.15301C13.5188 4.11901 13.6561 3.9887 13.7158 3.83006C13.7875 3.59777 13.692 3.33148 13.4949 3.1785C13.3576 3.07085 13.1665 3.03119 12.9933 3.06519C12.862 3.09352 12.7485 3.16717 12.6709 3.26915C12.5992 3.35981 12.5873 3.47879 12.5634 3.58643C12.5037 3.58643 12.432 3.60343 12.3783 3.56944C12.2947 3.52978 12.2409 3.44479 12.2171 3.35981C12.1812 3.18417 12.235 2.98587 12.3783 2.87255C12.5574 2.72525 12.8082 2.69692 13.0351 2.73091V2.74224ZM13.3576 3.42213C13.4352 3.48445 13.4531 3.59777 13.4173 3.68275C13.3695 3.78474 13.2561 3.85839 13.1426 3.85272C13.065 3.85272 12.9754 3.81306 12.9456 3.73941C12.8858 3.6091 12.9635 3.43913 13.1068 3.38813C13.1904 3.35981 13.2919 3.36547 13.3635 3.42213H13.3576ZM14.1816 4.39663C14.104 4.57794 13.9069 4.69125 13.7099 4.71391C13.6024 4.72524 13.4949 4.70258 13.3874 4.67992C13.477 4.69125 13.5666 4.69692 13.6561 4.68559C13.8591 4.65726 14.0622 4.54394 14.1458 4.36264C14.2294 4.19833 14.2353 4.01136 14.2055 3.83573C14.2413 4.0227 14.2532 4.221 14.1756 4.39663H14.1816Z" fill="#D8B880"/>
<path d="M8.28205 3.91505C8.16859 4.07369 7.98946 4.17001 7.81629 4.26633C7.57745 4.39664 7.35651 4.56095 7.18335 4.76491C7.1714 4.6686 7.15946 4.57794 7.11766 4.48729C7.03407 4.31732 6.85493 4.18134 6.65191 4.17568C6.55637 4.17001 6.4668 4.19834 6.37724 4.22667C6.29961 4.255 6.21004 4.27199 6.14436 4.32299C6.05479 4.39097 5.98314 4.48729 5.94731 4.59494C5.92342 4.67426 5.91148 4.75925 5.90551 4.83857C5.78609 4.81024 5.66069 4.79891 5.5353 4.82157C5.43976 4.84423 5.33228 4.87256 5.26062 4.94055C5.183 5.0142 5.13523 5.11619 5.12328 5.22384C5.11134 5.33715 5.12328 5.45046 5.1412 5.56378C5.03372 5.58078 4.93221 5.59211 4.8307 5.63177C4.71724 5.67709 4.60976 5.76208 4.56199 5.86973C4.52616 5.94905 4.49631 6.02837 4.47242 6.10769C4.41271 6.31165 4.50825 6.54395 4.69336 6.65726C4.80681 6.73092 4.93818 6.75358 5.06954 6.77624C4.974 6.85556 4.87847 6.94055 4.80084 7.0312C4.6635 7.18418 4.56199 7.35981 4.44854 7.52979C4.37091 7.6431 4.2694 7.75075 4.14401 7.81874C4.03653 7.88106 3.90516 7.89806 3.78574 7.91505C3.78574 7.97738 3.78574 8.0397 3.78574 8.10769C3.88128 8.12469 3.98279 8.13602 4.07235 8.17568C4.20969 8.23234 4.32314 8.33432 4.41271 8.44763C4.50228 8.56661 4.56796 8.69692 4.65753 8.8159C4.77098 8.98588 4.91429 9.13319 5.07551 9.26916C4.94415 9.29183 4.80681 9.32015 4.69336 9.39381C4.55005 9.47879 4.45451 9.63177 4.45451 9.79607C4.45451 9.92639 4.51422 10.0454 4.56199 10.1643C4.60976 10.272 4.69933 10.357 4.81278 10.4023C4.91429 10.4476 5.02775 10.4533 5.13523 10.4646C5.12926 10.6063 5.0994 10.7479 5.1412 10.8839C5.17105 11.0029 5.26062 11.1049 5.37407 11.1558C5.54127 11.2295 5.72638 11.2182 5.89954 11.1842C5.91148 11.3541 5.94731 11.5355 6.06673 11.6658C6.16227 11.7677 6.30558 11.8074 6.43098 11.8527C6.59817 11.9037 6.78925 11.8754 6.92659 11.7734C7.04004 11.6941 7.11169 11.5694 7.14155 11.4391C7.15946 11.3938 7.15946 11.3428 7.17738 11.2975C7.35054 11.4901 7.57148 11.6374 7.80435 11.7621C7.98349 11.8584 8.16859 11.9604 8.28205 12.1247C8.35967 12.2323 8.38356 12.357 8.40744 12.4816C8.47313 12.4816 8.53881 12.4816 8.60449 12.4816C8.62838 12.3513 8.65226 12.221 8.73586 12.1134C8.86125 11.9434 9.0583 11.8414 9.24341 11.7394C9.45837 11.6204 9.66737 11.4788 9.83456 11.2975C9.8465 11.3938 9.86442 11.4958 9.91816 11.5864C9.98981 11.7224 10.1271 11.8301 10.2884 11.8641C10.3959 11.8867 10.5093 11.8641 10.6108 11.8301C10.7302 11.7847 10.8616 11.7451 10.9452 11.6488C11.0587 11.5185 11.0945 11.3428 11.1005 11.1785C11.2796 11.2012 11.4766 11.2182 11.6438 11.1389C11.7453 11.0935 11.817 11.0029 11.8528 10.9009C11.9066 10.7592 11.8827 10.6006 11.8707 10.4533C12.02 10.442 12.1753 10.4193 12.3007 10.3287C12.3783 10.2777 12.432 10.1927 12.4679 10.1077C12.5097 10.0057 12.5634 9.90939 12.5634 9.80174C12.5694 9.61477 12.444 9.4448 12.2828 9.35415C12.1812 9.29749 12.0558 9.27483 11.9364 9.25783C12.014 9.18984 12.0976 9.12185 12.1693 9.0482C12.3126 8.89522 12.4261 8.71392 12.5335 8.53828C12.6112 8.4193 12.7067 8.30032 12.8321 8.221C12.9515 8.14735 13.0889 8.11335 13.2262 8.09636C13.2262 8.02837 13.2262 7.96605 13.2262 7.89806C13.065 7.88673 12.9038 7.8414 12.7784 7.74508C12.6231 7.63177 12.5276 7.4618 12.4261 7.30316C12.3305 7.15585 12.223 7.00854 12.0917 6.88956C12.0439 6.84423 12.0021 6.80457 11.9543 6.75925C12.0618 6.73658 12.1812 6.71392 12.2768 6.66293C12.4738 6.56095 12.5992 6.33998 12.5515 6.12469C12.5335 6.04537 12.5037 5.97171 12.4798 5.89806C12.4499 5.81874 12.3962 5.74508 12.3305 5.68843C12.2051 5.58644 12.0379 5.55245 11.8767 5.54678C11.8946 5.39947 11.9185 5.24083 11.8648 5.09919C11.8289 5.00287 11.7633 4.91789 11.6677 4.8669C11.5005 4.77624 11.2975 4.77624 11.1184 4.8159C11.1005 4.70259 11.0885 4.58361 11.0288 4.48163C10.9751 4.37964 10.8855 4.28899 10.772 4.24933C10.6407 4.20967 10.5093 4.14735 10.372 4.15868C10.1869 4.16435 10.0137 4.27199 9.92413 4.42497C9.87039 4.51562 9.85247 4.62327 9.83456 4.72525C9.71513 4.59494 9.5778 4.47029 9.42255 4.37398C9.28521 4.28899 9.1419 4.21534 9.00456 4.13602C8.87917 4.0567 8.76572 3.96038 8.69406 3.83573C8.64032 3.73942 8.62241 3.63177 8.59852 3.52979C8.53284 3.52979 8.46715 3.52979 8.40147 3.52979C8.37759 3.6601 8.3537 3.79041 8.27011 3.90372L8.28205 3.91505ZM8.50895 4.10202C8.56867 4.18134 8.64032 4.24933 8.72392 4.30599C8.96276 4.46463 9.23147 4.56661 9.45837 4.73658C9.66139 4.88389 9.81665 5.09352 9.87636 5.33715C9.93607 5.55245 9.91219 5.78474 9.82262 5.98871C9.73305 6.19267 9.60168 6.37398 9.44643 6.53828C9.57183 6.48163 9.71514 6.48729 9.85247 6.49296C9.98384 6.31165 10.1092 6.11902 10.1749 5.90372C10.2585 5.66576 10.2406 5.40514 10.2167 5.16151C10.2048 5.02554 10.2107 4.87823 10.2705 4.74792C10.3003 4.69126 10.3361 4.62327 10.4018 4.60061C10.4496 4.60061 10.4854 4.62894 10.5153 4.66293C10.6287 4.77624 10.6884 4.95188 10.6347 5.10486C10.5869 5.2295 10.4615 5.30882 10.3899 5.4278C10.3242 5.53545 10.3123 5.66576 10.3421 5.78474C10.3839 5.93772 10.4914 6.07369 10.6228 6.17001C10.7362 6.24933 10.8795 6.30599 11.0228 6.28899C11.1542 6.27766 11.2676 6.20967 11.3692 6.13602C11.4528 6.07369 11.5423 6.00004 11.6558 5.99437C11.7931 5.98304 11.9245 6.04537 12.026 6.13035C12.0618 6.16435 12.1096 6.20967 12.0976 6.26066C12.0678 6.31732 12.0081 6.34565 11.9484 6.36831C11.7692 6.4363 11.5662 6.42497 11.3751 6.40797C11.1005 6.37398 10.8138 6.38531 10.5511 6.48163C10.3839 6.54395 10.2227 6.62894 10.0674 6.71392C10.0913 6.8329 10.0853 6.95188 10.0674 7.0652C10.2764 6.92922 10.4974 6.79891 10.7422 6.74225C11.0288 6.67426 11.3453 6.71959 11.5961 6.86123C11.7931 6.97454 11.9543 7.13885 12.0738 7.32582C12.1812 7.49579 12.2708 7.67709 12.3962 7.83573C12.4559 7.91505 12.5335 7.97738 12.6052 8.04537C12.5395 8.10202 12.4738 8.15868 12.4201 8.221C12.235 8.44763 12.1275 8.71392 11.9364 8.93489C11.7991 9.09352 11.6199 9.21817 11.4169 9.29182C11.1542 9.38248 10.8556 9.38248 10.5989 9.28049C10.3899 9.20117 10.1869 9.09352 10.0197 8.94622C10.0794 9.0652 10.0734 9.20117 10.0674 9.33148C10.36 9.52412 10.7004 9.67709 11.0646 9.67143C11.3274 9.67143 11.5901 9.60911 11.8469 9.67143C11.9364 9.69409 12.032 9.72809 12.0857 9.80174C12.1156 9.84707 12.0857 9.89806 12.0439 9.92639C11.9245 10.034 11.7453 10.0964 11.5841 10.051C11.4229 10.0057 11.3214 9.8584 11.1661 9.79607C11.0527 9.74508 10.9153 9.75075 10.7959 9.79607C10.6108 9.86406 10.4615 10.0057 10.3779 10.1757C10.3003 10.323 10.3123 10.51 10.4078 10.6516C10.4794 10.7649 10.5989 10.8442 10.6347 10.9745C10.6765 11.1275 10.6168 11.2918 10.5093 11.4108C10.4735 11.4391 10.4317 11.4845 10.3779 11.4618C10.2943 11.4165 10.2525 11.3202 10.2287 11.2352C10.1749 11.0539 10.2167 10.8669 10.2227 10.6856C10.2227 10.5213 10.2346 10.3513 10.1809 10.1927C10.1092 9.96038 9.9719 9.75641 9.82262 9.56378C9.65542 9.56378 9.48823 9.54678 9.34492 9.4618C9.44046 9.53545 9.51809 9.6261 9.58974 9.72242C9.75693 9.93772 9.89427 10.1927 9.89427 10.4646C9.90024 10.6629 9.83456 10.8556 9.72708 11.0255C9.6196 11.1898 9.46434 11.3202 9.29118 11.4221C9.11204 11.5241 8.92694 11.6148 8.75377 11.7224C8.65823 11.7847 8.56867 11.8641 8.49104 11.949C8.4373 11.8867 8.38356 11.8244 8.31787 11.7791C8.06111 11.5864 7.75061 11.4845 7.49982 11.2862C7.26097 11.0935 7.09378 10.8102 7.08781 10.5043C7.07587 10.2153 7.21917 9.94905 7.39831 9.72242C7.46996 9.63177 7.54162 9.54678 7.63119 9.47313C7.54759 9.51279 7.45205 9.54678 7.35651 9.55245C7.2968 9.55245 7.23112 9.54678 7.17141 9.53545C6.9863 9.78474 6.81313 10.051 6.77133 10.357C6.72954 10.6403 6.83105 10.9292 6.75342 11.2125C6.72357 11.3088 6.68177 11.4165 6.58026 11.4618C6.52652 11.4618 6.49069 11.4221 6.45486 11.3881C6.35335 11.2692 6.29364 11.0992 6.34738 10.9462C6.39515 10.8159 6.52054 10.7366 6.58623 10.6233C6.6758 10.4873 6.66982 10.306 6.59817 10.1643C6.52054 10.0114 6.38321 9.88106 6.22198 9.80741C6.10256 9.75641 5.95328 9.73375 5.82789 9.79041C5.67263 9.85273 5.57112 9.99437 5.41587 10.051C5.24868 10.102 5.07551 10.034 4.95012 9.93205C4.91429 9.89806 4.87249 9.85273 4.89638 9.80174C4.94415 9.73375 5.02775 9.70542 5.10537 9.68276C5.36213 9.60911 5.63084 9.67143 5.89357 9.67143C6.26378 9.68276 6.61011 9.52979 6.91464 9.34848C6.90867 9.22384 6.90867 9.09352 6.95047 8.97455C6.77133 9.09919 6.58026 9.21817 6.37126 9.28616C6.17422 9.35415 5.95328 9.37681 5.74429 9.33715C5.5771 9.30316 5.4099 9.23517 5.27256 9.13319C5.0994 9.00854 4.96803 8.84423 4.86055 8.6686C4.71724 8.44763 4.59782 8.20401 4.38286 8.04537C4.44854 7.98304 4.52019 7.92072 4.57991 7.84707C4.75307 7.6261 4.86652 7.37115 5.04566 7.15585C5.30839 6.8329 5.75623 6.6516 6.18019 6.73092C6.4668 6.78191 6.72954 6.92355 6.95644 7.09919C6.95644 7.0652 6.95047 7.02554 6.95047 6.99154C6.9863 7.05386 7.01615 7.11619 7.05198 7.17284C7.08781 7.22384 7.12961 7.2635 7.17738 7.30882C7.06989 7.33715 6.96838 7.37681 6.88479 7.45046C6.73551 7.58078 6.62205 7.76208 6.61011 7.96605C6.58623 8.221 6.70565 8.48729 6.91464 8.6516C6.9863 8.70259 7.07587 8.74792 7.17141 8.74792C7.24306 8.71959 7.30277 8.6686 7.36845 8.62894C7.52968 8.53262 7.70284 8.4533 7.87004 8.36831C7.89989 8.40797 7.92975 8.44197 7.9596 8.48163C7.79241 8.62894 7.59536 8.74225 7.37443 8.79324C7.30277 8.8159 7.23112 8.78191 7.16543 8.75358C6.99824 8.88956 6.91464 9.11052 6.95644 9.31449C6.99227 9.4448 7.14155 9.51845 7.27292 9.52412C7.44608 9.53545 7.61327 9.45613 7.75061 9.35981C7.7745 9.43347 7.79838 9.50712 7.84615 9.56945C7.99543 9.77341 8.25816 9.87539 8.50895 9.86973C8.77169 9.86973 9.02845 9.73375 9.17176 9.52979C9.20758 9.47879 9.2255 9.41647 9.24938 9.35981C9.31506 9.40514 9.38075 9.45047 9.45837 9.47879C9.55988 9.51845 9.67931 9.52979 9.78679 9.51279C9.90621 9.49579 10.0137 9.41081 10.0376 9.29749C10.0615 9.16718 10.0376 9.02554 9.96593 8.91222C9.9301 8.85556 9.88233 8.81024 9.82859 8.76491C9.77485 8.78191 9.72111 8.80457 9.66139 8.79891C9.60168 8.79891 9.54197 8.77624 9.48226 8.75358C9.32104 8.69126 9.16578 8.60627 9.03442 8.48729C9.08816 8.41364 9.14787 8.34565 9.19564 8.26633C9.1837 8.30599 9.17176 8.33998 9.16579 8.37964C9.38075 8.50429 9.63154 8.58361 9.81665 8.75358C9.89427 8.73658 9.9719 8.71959 10.0316 8.67426C10.2107 8.55528 10.3242 8.36265 10.372 8.16435C10.4138 7.94338 10.3481 7.69976 10.1928 7.52979C10.0973 7.42214 9.9719 7.32582 9.81665 7.32015C9.73902 7.35415 9.67931 7.41647 9.60765 7.45613C9.45837 7.54112 9.29715 7.61477 9.14787 7.69409C9.09413 7.6261 9.04039 7.55811 8.98665 7.49013C9.02248 7.50712 9.06427 7.52979 9.1001 7.54678C9.23147 7.4448 9.38075 7.35415 9.536 7.29182C9.58377 7.27483 9.63154 7.25783 9.68528 7.25216C9.73902 7.25216 9.78679 7.27483 9.83456 7.29182C9.88233 7.2465 9.93607 7.20117 9.9719 7.15018C10.0495 7.03687 10.0674 6.88956 10.0376 6.75925C10.0137 6.65726 9.92413 6.58928 9.82262 6.55528C9.72111 6.52129 9.60168 6.53262 9.50017 6.56095C9.40463 6.58928 9.32701 6.65726 9.24341 6.71392C9.21953 6.6346 9.18967 6.56095 9.13593 6.49296C9.04636 6.38531 8.91499 6.30599 8.78363 6.24933C8.46715 6.13035 8.07903 6.22667 7.86406 6.47596C7.80435 6.54395 7.78047 6.62894 7.75658 6.70826C7.67299 6.6516 7.58939 6.58361 7.48788 6.55528C7.37443 6.52129 7.24306 6.51562 7.12961 6.55528C7.04601 6.58928 6.99227 6.66293 6.93853 6.73092C6.72954 6.60627 6.49666 6.49862 6.25781 6.4363C6.04882 6.38531 5.82789 6.39097 5.61292 6.41364C5.40393 6.43063 5.183 6.44197 4.98595 6.35132C4.93818 6.32865 4.87847 6.28899 4.88444 6.23233C4.89041 6.18134 4.93221 6.14735 4.974 6.11335C5.09343 6.0227 5.24868 5.96038 5.39796 6.00004C5.5353 6.03403 5.62486 6.15868 5.74429 6.221C5.86371 6.28899 6.01299 6.30599 6.14436 6.26633C6.32947 6.20967 6.49069 6.07369 6.58026 5.90939C6.65191 5.77908 6.6758 5.60911 6.61608 5.47313C6.55637 5.34282 6.43098 5.25216 6.35932 5.12752C6.29364 4.98588 6.32947 4.8159 6.42501 4.69692C6.46083 4.65726 6.49666 4.61194 6.55637 4.60061C6.61011 4.60061 6.64594 4.64593 6.6758 4.68559C6.77731 4.83857 6.78328 5.01987 6.77133 5.19551C6.75342 5.4278 6.72954 5.67143 6.80716 5.89806C6.87882 6.11902 7.00421 6.31732 7.14752 6.50429C7.27889 6.49862 7.41025 6.48729 7.54162 6.52695C7.3804 6.35698 7.23709 6.16435 7.15349 5.94338C7.02212 5.6261 7.08781 5.2465 7.30874 4.97454C7.39234 4.8669 7.49385 4.77624 7.6073 4.70259C7.82824 4.54962 8.09097 4.4533 8.30593 4.29466C8.37759 4.24367 8.4373 4.18134 8.48507 4.11335L8.50895 4.10202ZM5.91745 5.28049C5.98911 5.32582 6.04285 5.38814 6.1145 5.43347C6.20407 5.49579 6.30558 5.52412 6.39515 5.58078C6.42501 5.60344 6.46083 5.6261 6.47277 5.66576C6.48472 5.69976 6.46083 5.73375 6.43695 5.75641C6.37724 5.81307 6.29961 5.84707 6.24587 5.90939C6.19213 5.96038 6.16227 6.02837 6.09659 6.07369C6.06076 6.09636 6.01299 6.07369 5.98911 6.04537C5.92342 5.96605 5.89357 5.86406 5.83386 5.77908C5.78012 5.69976 5.69055 5.64877 5.63084 5.57511C5.54724 5.47879 5.57112 5.30316 5.70249 5.25217C5.77414 5.22384 5.86371 5.23517 5.9294 5.27483L5.91745 5.28049ZM11.3632 5.27483C11.4647 5.34282 11.4707 5.49579 11.393 5.58078C11.3333 5.64877 11.2497 5.69976 11.196 5.77341C11.1303 5.85273 11.1005 5.96038 11.0407 6.04537C11.0169 6.07936 10.9691 6.11335 10.9273 6.08503C10.8616 6.04537 10.8317 5.97738 10.784 5.92072C10.7302 5.85273 10.6407 5.81874 10.581 5.75641C10.5511 5.72809 10.5392 5.68276 10.563 5.64877C10.5869 5.60344 10.6347 5.58078 10.6765 5.55245C10.7661 5.50712 10.8676 5.47313 10.9452 5.41081C11.0228 5.34848 11.0885 5.2635 11.196 5.2465C11.2557 5.23517 11.3154 5.2465 11.3632 5.27483ZM8.51492 6.49862C8.55672 6.49862 8.58658 6.52695 8.61046 6.55528C8.68809 6.66293 8.71197 6.79891 8.706 6.92922C8.706 7.05386 8.65823 7.17851 8.63435 7.30316C8.70003 7.32015 8.76571 7.33149 8.8314 7.34848C8.92097 7.17851 8.99262 6.99721 9.11204 6.84423C9.14787 6.79324 9.20161 6.75925 9.24938 6.71959C9.26132 6.74792 9.29118 6.77624 9.28521 6.81024C9.27924 6.90656 9.23147 6.99154 9.18967 7.07653C9.12399 7.20684 9.05233 7.33149 8.95679 7.4448C8.88514 7.40514 8.81348 7.35415 8.72989 7.33715C8.62838 7.30882 8.52687 7.31449 8.42536 7.31449C8.37162 7.12752 8.31787 6.92922 8.35967 6.73658C8.37759 6.64593 8.42536 6.54962 8.51492 6.49862ZM7.92975 6.82724C8.06708 6.98588 8.15068 7.17851 8.22831 7.37115C8.18651 7.39381 8.14471 7.41647 8.10291 7.43913C8.0014 7.28049 7.89392 7.11619 7.81032 6.94622C7.7745 6.87823 7.7745 6.80457 7.78644 6.73092C7.84018 6.75358 7.89989 6.78191 7.93572 6.8329L7.92975 6.82724ZM6.96838 6.71392C6.98033 6.78758 6.98033 6.89522 6.96838 6.96888C6.92659 6.90089 6.9445 6.78758 6.96838 6.71392ZM7.2968 7.2295C7.35651 7.22384 7.41622 7.24083 7.47594 7.25783C7.66104 7.32015 7.83421 7.42214 7.97752 7.55245C7.94766 7.59211 7.9178 7.63177 7.88795 7.67143C7.65507 7.55245 7.40428 7.45046 7.20723 7.28616C7.23709 7.26916 7.26694 7.24083 7.30277 7.23517L7.2968 7.2295ZM8.72392 7.64877C8.86722 7.72242 8.95679 7.87539 8.95082 8.02837C8.95082 8.18134 8.8314 8.32865 8.68212 8.37964C8.53881 8.43063 8.37162 8.40797 8.25816 8.31166C8.14471 8.22667 8.09097 8.08503 8.10888 7.94905C8.12083 7.80174 8.24025 7.67709 8.37759 7.6261C8.49104 7.58644 8.62241 7.59777 8.72392 7.64877ZM9.27327 7.88106C9.41657 7.85273 9.55988 7.81307 9.70319 7.83007C9.81665 7.8414 9.9301 7.86973 10.0197 7.94338C10.0495 7.96605 10.0794 8.00004 10.0734 8.0397C10.0256 8.11335 9.9301 8.14735 9.8465 8.17001C9.64945 8.21534 9.44046 8.18134 9.24938 8.11902C9.24938 7.97171 9.23744 7.8244 9.19564 7.68276C9.2255 7.74508 9.25535 7.81307 9.27924 7.88106H9.27327ZM7.82824 7.79607C7.80435 7.90372 7.80435 8.01137 7.81032 8.11335C7.67896 8.15301 7.54162 8.18701 7.40428 8.18701C7.26694 8.18701 7.11766 8.16435 7.01018 8.07936C6.9863 8.0567 6.95644 8.02837 6.97436 7.99437C7.02213 7.92072 7.10572 7.88673 7.18335 7.8584C7.37443 7.79607 7.57745 7.83573 7.76852 7.87539C7.78644 7.84707 7.80435 7.81874 7.82227 7.79041L7.82824 7.79607ZM8.11485 8.56661C8.14471 8.58927 8.18054 8.60061 8.21039 8.62894C8.21636 8.69126 8.18651 8.74792 8.16262 8.80457C8.09694 8.94055 8.02529 9.07653 7.92378 9.19551C7.88795 9.24083 7.83421 9.2635 7.78644 9.28616C7.7745 9.20117 7.78644 9.11619 7.82824 9.03687C7.90586 8.87256 8.00737 8.71392 8.12083 8.56661H8.11485ZM8.93291 8.56661C9.04636 8.70259 9.1419 8.85556 9.21953 9.0142C9.26132 9.09919 9.29715 9.18984 9.26132 9.28616C9.20758 9.25783 9.15384 9.22384 9.11802 9.17851C9.03442 9.0652 8.95082 8.94622 8.89708 8.8159C8.86722 8.75925 8.83737 8.70259 8.80154 8.64593C8.84931 8.6176 8.89111 8.59494 8.93888 8.57228L8.93291 8.56661ZM8.72392 8.68559C8.68809 8.69126 8.65226 8.69692 8.62241 8.70259C8.67615 8.89522 8.73586 9.09919 8.68212 9.30316C8.65823 9.38814 8.61643 9.47879 8.53284 9.51845C8.48507 9.51279 8.44924 9.47313 8.42536 9.43913C8.35967 9.34282 8.34176 9.2295 8.34176 9.11619C8.34176 8.96888 8.38953 8.82724 8.41341 8.68559C8.51492 8.68559 8.62241 8.68559 8.72392 8.68559ZM6.12047 9.97171C6.18019 10.0284 6.22198 10.102 6.28767 10.153C6.34738 10.204 6.42501 10.2437 6.46083 10.3173C6.47875 10.3626 6.44292 10.4023 6.40709 10.4306C6.31752 10.493 6.20407 10.527 6.10853 10.5836C6.03091 10.6289 5.97717 10.6969 5.89954 10.7422C5.80997 10.7989 5.66666 10.7876 5.60098 10.7026C5.54724 10.6233 5.56515 10.51 5.63084 10.442C5.70249 10.3626 5.79206 10.3003 5.8458 10.204C5.89954 10.119 5.92342 10.0057 6.00702 9.94338C6.04285 9.92639 6.09062 9.94338 6.1145 9.97171H6.12047ZM11.0348 9.97738C11.1064 10.0624 11.1363 10.1643 11.202 10.255C11.2557 10.3343 11.3393 10.3853 11.399 10.4646C11.4647 10.5553 11.4468 10.7026 11.3393 10.7592C11.2557 10.7989 11.1542 10.7819 11.0766 10.7309C11.0049 10.6799 10.9452 10.6119 10.8735 10.5666C10.778 10.51 10.6646 10.4816 10.581 10.408C10.5511 10.3796 10.5392 10.3343 10.563 10.306C10.6108 10.2323 10.7004 10.1927 10.7601 10.1304C10.8138 10.0794 10.8497 10.0114 10.9034 9.96605C10.9392 9.93205 10.9989 9.94905 11.0288 9.98304L11.0348 9.97738Z" fill="#D8B880"/>
<path d="M0.859844 4.34003C0.931498 4.3117 1.03301 4.34003 1.05689 4.41369C1.09272 4.51 1.04495 4.61765 0.985239 4.69697C0.94344 4.74796 0.895671 4.80462 0.824017 4.83295C0.776247 4.84428 0.74042 4.80462 0.716535 4.77063C0.632938 4.62332 0.698621 4.41369 0.859844 4.34003Z" fill="#D8B880"/>
<path d="M16.0147 4.33997C16.0864 4.31164 16.176 4.33997 16.2237 4.39663C16.3253 4.49295 16.3491 4.65159 16.2775 4.77057C16.2596 4.79889 16.2297 4.83289 16.1879 4.83289C16.1401 4.82722 16.0983 4.78756 16.0685 4.75923C15.9909 4.67991 15.9312 4.57793 15.9312 4.47028C15.9312 4.41929 15.961 4.36263 16.0088 4.33997H16.0147Z" fill="#D8B880"/>
<path d="M8.32384 4.82719C8.43132 4.74787 8.59255 4.74787 8.70003 4.82719C8.75974 4.86685 8.80154 4.93484 8.83737 4.9915C8.93291 5.00283 9.03442 5.00849 9.11801 5.05948C9.24341 5.1388 9.30909 5.28045 9.30909 5.41643C9.327 5.70538 9.13593 5.983 8.87916 6.11897C8.82542 6.1473 8.75974 6.15297 8.70003 6.15863C8.68809 6.05099 8.68809 5.94334 8.69406 5.83002C8.75974 5.79603 8.82542 5.7677 8.87319 5.71671C8.93888 5.63739 8.92096 5.52407 8.85528 5.45042C8.77168 5.35977 8.63435 5.33144 8.51492 5.33144C8.3955 5.33144 8.2701 5.3541 8.18651 5.43909C8.10888 5.50708 8.10291 5.62606 8.16262 5.71104C8.20442 5.7677 8.28205 5.79036 8.33579 5.83569C8.3537 5.93767 8.33579 6.04532 8.32981 6.1473C8.27607 6.14164 8.21636 6.1473 8.16859 6.11897C7.92974 5.99999 7.75061 5.7677 7.73269 5.51274C7.71478 5.35977 7.75658 5.1898 7.88795 5.08781C7.97154 5.01416 8.09097 5.00849 8.19845 4.9915C8.23428 4.92917 8.27607 4.86118 8.33579 4.82152L8.32384 4.82719Z" fill="#D8B880"/>
<path d="M1.19422 5.08216C1.33753 5.05949 1.48084 5.05949 1.62415 5.06516C1.82717 5.07082 2.03616 5.11615 2.2153 5.21247C2.11379 5.21813 2.01228 5.2238 1.91077 5.24646C1.82717 5.26346 1.74954 5.29179 1.67192 5.32012C1.49278 5.38244 1.30767 5.4391 1.14048 5.52975C0.979259 5.60907 0.83595 5.73371 0.740411 5.88669C0.626958 6.07366 0.567246 6.28896 0.58516 6.50425C0.597102 6.6119 0.63293 6.71388 0.704584 6.79887C0.746382 6.84986 0.794152 6.88952 0.818037 6.94618C0.829979 6.96884 0.812066 6.99717 0.800123 7.01983C0.764296 7.08782 0.716526 7.15015 0.704584 7.2238C0.692642 7.30312 0.698613 7.39377 0.740411 7.46743C0.776238 7.52975 0.829979 7.58074 0.871778 7.64306C0.824008 7.6034 0.770267 7.56374 0.73444 7.51842C0.525448 7.28046 0.358254 7.00284 0.2866 6.69122C0.18509 6.2493 0.2866 5.75071 0.603074 5.4051C0.752354 5.2408 0.961345 5.13315 1.18825 5.09349L1.19422 5.08216Z" fill="#D8B880"/>
<path d="M14.7847 5.21247C14.9817 5.11615 15.1967 5.07083 15.4176 5.06516C15.5848 5.06516 15.7639 5.05383 15.9252 5.10482C16.1222 5.15581 16.2954 5.27479 16.4267 5.4221C16.7731 5.80737 16.8567 6.37394 16.6835 6.8442C16.6238 7.0085 16.5462 7.16714 16.4447 7.30879C16.3551 7.4391 16.2596 7.56941 16.1162 7.64873C16.176 7.59207 16.2357 7.53541 16.2775 7.46176C16.3193 7.38811 16.3252 7.29745 16.3073 7.21247C16.2894 7.12748 16.2297 7.06516 16.2058 6.98017C16.1939 6.94618 16.2178 6.91219 16.2416 6.88386C16.2894 6.82153 16.3551 6.75921 16.3909 6.68556C16.4566 6.55524 16.4566 6.40794 16.4387 6.27196C16.4029 5.98301 16.2237 5.71672 15.961 5.55808C15.7221 5.41643 15.4475 5.33145 15.1788 5.25213C15.0534 5.21813 14.922 5.21247 14.7906 5.2068L14.7847 5.21247Z" fill="#D8B880"/>
<path d="M1.61222 5.38815C1.64805 5.36549 1.68985 5.35416 1.73165 5.33716C1.75553 5.44481 1.77345 5.55246 1.83316 5.64877C1.88093 5.72243 1.95855 5.79042 2.04812 5.80175C2.14963 5.81874 2.25114 5.80175 2.34071 5.75642C2.44222 5.70543 2.53776 5.63744 2.64524 5.59212C2.75869 5.54112 2.89006 5.52979 3.01545 5.54112C3.09905 5.54679 3.17668 5.57512 3.23639 5.63744C3.3379 5.74509 3.38567 5.8924 3.38567 6.03971C3.45135 5.93772 3.54092 5.85274 3.6484 5.78475C3.7738 5.70543 3.91711 5.64311 4.06639 5.64311C4.14998 5.64311 4.25149 5.64877 4.3112 5.7111C4.37092 5.77342 4.40674 5.84707 4.46048 5.92073C4.38286 5.92073 4.3112 5.92073 4.23358 5.93206C4.04847 5.95472 3.87531 6.05104 3.74394 6.18135C3.57675 6.35699 3.48121 6.58362 3.45732 6.82158C3.44538 6.97455 3.46927 7.14452 3.57078 7.26917C3.60063 7.30316 3.65437 7.34849 3.70214 7.32016C3.77977 7.2805 3.82754 7.20685 3.87531 7.13886C3.9589 7.03121 4.00667 6.90656 4.07236 6.79325C4.07833 6.79325 4.09027 6.79325 4.10221 6.79325C4.21567 6.87823 4.28732 7.00855 4.3112 7.14452C4.34106 7.30316 4.26344 7.46747 4.14401 7.57512C4.0007 7.69976 3.78574 7.72809 3.60063 7.68277C3.41553 7.63744 3.27222 7.4958 3.19459 7.33149C3.02143 6.98588 3.06322 6.56095 3.24833 6.22668C3.27222 6.17002 3.31999 6.11336 3.2961 6.05104C3.24833 5.93206 3.11696 5.84141 2.97963 5.84707C2.81841 5.84707 2.68107 5.92639 2.54373 5.99438C2.38251 6.07937 2.1974 6.11903 2.01229 6.1077C1.86301 6.09636 1.7197 6.02271 1.64208 5.89806C1.57042 5.79042 1.55848 5.65444 1.5764 5.52979C1.58237 5.48447 1.59431 5.43348 1.61819 5.39948L1.61222 5.38815Z" fill="#D8B880"/>
<path d="M15.2863 5.33716C15.34 5.35982 15.4057 5.37682 15.4236 5.43914C15.4714 5.57512 15.4594 5.72809 15.3937 5.8584C15.328 5.98872 15.1847 6.07937 15.0355 6.09637C14.8324 6.12469 14.6294 6.06804 14.4503 5.97172C14.3189 5.90373 14.1816 5.83574 14.0263 5.84141C13.895 5.84141 13.7636 5.92639 13.7218 6.05104C13.7039 6.10203 13.7397 6.14736 13.7576 6.19268C13.8472 6.34566 13.9129 6.5043 13.9308 6.67993C13.9547 6.87257 13.9308 7.07654 13.8591 7.25784C13.8054 7.39948 13.7158 7.52979 13.5785 7.61478C13.4471 7.6941 13.2799 7.71676 13.1247 7.68843C12.8799 7.64877 12.6828 7.41648 12.7067 7.17852C12.7186 7.01988 12.8142 6.87823 12.9396 6.77625C13.0112 6.89523 13.065 7.02554 13.1426 7.13319C13.1904 7.20118 13.2381 7.27484 13.3158 7.3145C13.3635 7.34282 13.4173 7.30316 13.4531 7.26917C13.5367 7.17285 13.5665 7.04254 13.5665 6.91789C13.5665 6.63461 13.4591 6.34566 13.2441 6.14736C13.1426 6.05104 13.0112 5.97738 12.8739 5.94339C12.7724 5.92073 12.6649 5.92073 12.5634 5.92073C12.6171 5.84707 12.653 5.76209 12.7246 5.70543C12.8142 5.63744 12.9336 5.63744 13.0411 5.64877C13.2859 5.68277 13.4889 5.84141 13.6382 6.02271C13.6382 5.9094 13.6681 5.79042 13.7397 5.69976C13.7935 5.62611 13.8711 5.56945 13.9666 5.55246C14.1099 5.52979 14.2652 5.54679 14.3965 5.60911C14.4921 5.65444 14.5757 5.71676 14.6772 5.76209C14.7727 5.80741 14.8802 5.83008 14.9877 5.80741C15.0773 5.79042 15.1429 5.72243 15.1847 5.65444C15.2385 5.55812 15.2564 5.45047 15.2803 5.34282L15.2863 5.33716Z" fill="#D8B880"/>
<path d="M2.89005 6.05109C2.9617 6.02276 3.05724 6.05109 3.0871 6.12474C3.10501 6.17574 3.06321 6.22106 3.03336 6.26072C2.94976 6.35137 2.85422 6.42503 2.74077 6.48169C2.63329 6.53834 2.50192 6.55534 2.3825 6.52135C2.3825 6.51568 2.3825 6.49868 2.37653 6.49302C2.4243 6.40803 2.50192 6.34571 2.5676 6.27205C2.66314 6.1814 2.76465 6.09075 2.89602 6.05109H2.89005Z" fill="#D8B880"/>
<path d="M13.9368 6.16998C13.9188 6.102 13.9965 6.04534 14.0622 6.03967C14.1637 6.03967 14.2532 6.102 14.3309 6.15865C14.4622 6.26064 14.5816 6.38528 14.6712 6.52693C14.5816 6.53826 14.4921 6.54959 14.4085 6.52693C14.2771 6.4986 14.1696 6.41361 14.0681 6.32862C14.0204 6.2833 13.9606 6.23231 13.9368 6.16998Z" fill="#D8B880"/>
<path d="M1.39725 6.4817C1.60027 6.35705 1.85106 6.29473 2.0899 6.33439C2.1735 6.34572 2.23918 6.39671 2.30487 6.4477C2.26904 6.4817 2.22724 6.51002 2.1735 6.52136C2.01228 6.56668 1.83911 6.58368 1.68386 6.65733C1.47487 6.75365 1.31962 6.95195 1.30171 7.17291C1.28379 7.33155 1.31365 7.49019 1.3435 7.64317C1.20617 7.58085 1.08077 7.48453 1.01509 7.34855C0.967319 7.22391 0.979261 7.08793 1.01509 6.96328C1.08674 6.77065 1.21214 6.60068 1.39127 6.4817H1.39725Z" fill="#D8B880"/>
<path d="M14.8265 6.36835C14.9638 6.31169 15.1191 6.31169 15.2624 6.34002C15.5072 6.38534 15.7341 6.52699 15.8655 6.72529C15.9909 6.90093 16.0745 7.12189 16.0028 7.33152C15.9371 7.47316 15.8117 7.58648 15.6684 7.63747C15.6923 7.48449 15.7401 7.32585 15.7162 7.16721C15.6923 6.92359 15.5012 6.70829 15.2624 6.6233C15.0832 6.55532 14.8862 6.54965 14.719 6.46466C14.7489 6.425 14.7787 6.38534 14.8265 6.36268V6.36835Z" fill="#D8B880"/>
<path d="M1.77343 6.8952C1.86897 6.82154 1.9884 6.79321 2.10782 6.79321C2.04811 6.8612 1.96451 6.91786 1.92271 7.00284C1.86897 7.11616 1.93465 7.25214 2.05408 7.29746C2.1317 7.33146 2.24516 7.32579 2.2989 7.25214C2.34667 7.18415 2.35264 7.09916 2.39444 7.02551C2.43624 6.96885 2.51386 6.95185 2.57954 6.96318C2.65717 6.98018 2.71091 7.04817 2.71091 7.12182C2.72285 7.26913 2.63926 7.41078 2.53775 7.51843C2.38249 7.66573 2.14962 7.71106 1.94063 7.6714C1.8212 7.64874 1.70178 7.58075 1.64804 7.4731C1.54653 7.28046 1.58833 7.01984 1.76746 6.88386L1.77343 6.8952Z" fill="#D8B880"/>
<path d="M14.9101 6.78755C15.125 6.77622 15.34 6.90653 15.3997 7.10483C15.4475 7.26347 15.4176 7.46177 15.2863 7.58075C15.143 7.69973 14.928 7.71673 14.7489 7.67707C14.5399 7.63174 14.3667 7.46744 14.313 7.26914C14.295 7.20115 14.2891 7.12749 14.3189 7.06517C14.3667 6.96885 14.522 6.94052 14.5996 7.01418C14.6712 7.08783 14.6653 7.20115 14.7429 7.2748C14.8265 7.34279 14.9519 7.32013 15.0295 7.25781C15.1131 7.19548 15.1489 7.07084 15.0892 6.98018C15.0355 6.90653 14.9638 6.85554 14.9041 6.78755H14.9101Z" fill="#D8B880"/>
<path d="M5.45767 7.43344C5.52932 7.34845 5.6368 7.29179 5.74428 7.2748C5.89356 7.25213 6.04881 7.2748 6.18615 7.33145C6.35932 7.40511 6.50262 7.53542 6.61011 7.68273C6.6519 7.72806 6.61011 7.79038 6.59816 7.8357C6.48471 7.8357 6.37126 7.8357 6.25781 7.8357C6.23392 7.77905 6.21004 7.71672 6.1563 7.6714C6.0727 7.60341 5.92939 7.60908 5.85774 7.6884C5.77414 7.76772 5.75623 7.89236 5.75623 8.00001C5.75623 8.11332 5.77414 8.23797 5.85774 8.32862C5.92342 8.40228 6.05478 8.40794 6.13838 8.35695C6.19212 8.31729 6.22198 8.25497 6.25183 8.19264C6.37126 8.19264 6.49068 8.17565 6.61011 8.19264C6.64593 8.30029 6.55637 8.39094 6.49665 8.4646C6.32946 8.6629 6.06076 8.78188 5.79205 8.75355C5.66666 8.74222 5.53529 8.68556 5.46364 8.58358C5.40392 8.50993 5.39198 8.41361 5.38004 8.32296C5.31436 8.2833 5.23673 8.25497 5.18896 8.19264C5.10536 8.09633 5.09939 7.94335 5.17702 7.84137C5.22479 7.77338 5.30839 7.73372 5.38004 7.69406C5.39795 7.60341 5.40392 7.50143 5.46961 7.42211L5.45767 7.43344Z" fill="#D8B880"/>
<path d="M10.784 7.35985C10.9392 7.27487 11.1183 7.24087 11.2915 7.27487C11.405 7.29186 11.5065 7.35419 11.5781 7.43917C11.6378 7.51283 11.6438 7.61481 11.6558 7.70546C11.7155 7.73946 11.7812 7.76779 11.8289 7.81878C11.9364 7.92076 11.9424 8.09073 11.8528 8.20405C11.805 8.26637 11.7334 8.30036 11.6617 8.34002C11.6438 8.42501 11.6378 8.51566 11.5901 8.58931C11.5304 8.67997 11.4229 8.74229 11.3094 8.75929C11.184 8.78195 11.0467 8.77628 10.9213 8.73662C10.7302 8.6743 10.569 8.53832 10.4675 8.37402C10.4376 8.32303 10.4257 8.2607 10.4078 8.19838C10.5272 8.19838 10.6526 8.19838 10.772 8.19838C10.8019 8.25504 10.8198 8.32303 10.8795 8.36269C10.9691 8.41934 11.1064 8.40801 11.1781 8.32869C11.2617 8.23804 11.2676 8.10773 11.2676 7.99441C11.2676 7.8811 11.2378 7.75645 11.1422 7.6828C11.0527 7.60915 10.9034 7.63747 10.8317 7.72246C10.8019 7.76212 10.7899 7.80745 10.772 7.85277C10.6586 7.85277 10.5451 7.85277 10.4257 7.85277C10.4257 7.80178 10.4257 7.75079 10.4137 7.70546C10.5033 7.56949 10.6227 7.45051 10.772 7.37685L10.784 7.35985Z" fill="#D8B880"/>
<path d="M0.40006 7.68274C0.525455 7.66008 0.662793 7.66008 0.788188 7.66575C1.00315 7.67708 1.20617 7.74507 1.41516 7.77906C1.50473 7.79606 1.60027 7.80172 1.6779 7.85271C1.73761 7.89237 1.73164 7.97736 1.71969 8.03968C1.70775 8.10201 1.64207 8.119 1.58833 8.136C1.40919 8.17566 1.23006 8.19832 1.04495 8.23232C0.883727 8.26065 0.716533 8.27198 0.54934 8.26065C0.394089 8.24931 0.238838 8.20965 0.113442 8.12467C0.0597017 8.08501 0.00596095 8.03402 -0.00598145 7.96603C-0.00598145 7.90371 0.0358169 7.85271 0.0776153 7.81872C0.167183 7.75073 0.274665 7.70541 0.388118 7.68274H0.40006Z" fill="#D8B880"/>
<path d="M16.0983 7.68279C16.2417 7.66013 16.385 7.6658 16.5223 7.68279C16.6537 7.69979 16.791 7.73945 16.8985 7.81311C16.9463 7.8471 16.994 7.89243 17 7.94908C17.006 8.00007 16.9761 8.05107 16.9403 8.08506C16.8746 8.14738 16.791 8.19271 16.7014 8.22104C16.5223 8.2777 16.3312 8.28336 16.1461 8.26636C15.9252 8.2437 15.7102 8.18704 15.4893 8.15305C15.4296 8.14172 15.3579 8.13039 15.3221 8.07373C15.2922 8.01707 15.2922 7.94908 15.3161 7.89243C15.3519 7.8301 15.4296 7.81877 15.4953 7.80177C15.6983 7.76778 15.8953 7.71112 16.0983 7.67713V7.68279Z" fill="#D8B880"/>
<path d="M2.34668 7.88108C2.43625 7.86975 2.51985 7.86975 2.60942 7.86975C2.65719 7.86975 2.70496 7.86975 2.75273 7.89241C2.84229 7.93774 2.83035 8.09638 2.72884 8.11904C2.63927 8.14171 2.5497 8.13037 2.46014 8.13037C2.37654 8.13037 2.28697 8.12471 2.22129 8.07372C2.17949 8.04539 2.17352 7.98307 2.20935 7.94907C2.24517 7.91508 2.29891 7.89241 2.34668 7.88675V7.88108Z" fill="#D8B880"/>
<path d="M14.301 7.88101C14.3846 7.86402 14.4742 7.86968 14.5637 7.86968C14.6473 7.86968 14.7369 7.86968 14.8026 7.932C14.8444 7.96033 14.8504 8.02832 14.8086 8.06232C14.7429 8.12464 14.6414 8.12464 14.5578 8.1303C14.4622 8.1303 14.3667 8.14164 14.2771 8.11331C14.1696 8.07365 14.1876 7.89801 14.301 7.88101Z" fill="#D8B880"/>
<path d="M0.806111 8.36267C0.865823 8.30602 0.955391 8.28902 1.03899 8.26636C0.973304 8.28902 0.907621 8.30602 0.85388 8.35134C0.758341 8.43633 0.692658 8.55531 0.7046 8.68562C0.7046 8.79327 0.794168 8.88392 0.824024 8.9859C0.835967 9.01423 0.812082 9.0369 0.800139 9.05389C0.75237 9.11055 0.698629 9.16154 0.662802 9.22386C0.585176 9.35418 0.567263 9.51282 0.585176 9.66012C0.621004 9.90375 0.740427 10.1304 0.931506 10.2947C1.09273 10.4307 1.28978 10.5213 1.4928 10.595C1.60625 10.6403 1.7197 10.6913 1.83316 10.7309C1.95258 10.7763 2.08992 10.7819 2.21531 10.8046C1.92272 10.9179 1.59431 10.9349 1.28381 10.8953C1.08676 10.8669 0.90165 10.7876 0.75237 10.663C0.459781 10.425 0.30453 10.0681 0.262732 9.71112C0.226904 9.41083 0.298559 9.11055 0.447839 8.84426C0.543378 8.67429 0.656831 8.50432 0.806111 8.36834V8.36267Z" fill="#D8B880"/>
<path d="M1.89884 8.30598C2.08991 8.26065 2.31085 8.27765 2.47207 8.3853C2.60344 8.47595 2.70495 8.61759 2.71689 8.77623C2.71689 8.84422 2.71689 8.91788 2.66315 8.96887C2.5915 9.04252 2.45416 9.01986 2.39445 8.94054C2.34071 8.86122 2.34668 8.75924 2.28099 8.69125C2.1974 8.62326 2.06603 8.64025 1.98243 8.70824C1.89884 8.77623 1.88092 8.90088 1.94661 8.98586C1.99438 9.05385 2.06603 9.10484 2.12574 9.1615C1.96452 9.17283 1.79135 9.11618 1.68984 8.9972C1.58833 8.88388 1.57639 8.72524 1.60625 8.5836C1.6361 8.44762 1.7615 8.33997 1.89884 8.30598Z" fill="#D8B880"/>
<path d="M14.4682 8.45336C14.6354 8.30039 14.8862 8.25506 15.1071 8.30605C15.2445 8.34005 15.3699 8.43636 15.4057 8.56668C15.4355 8.69132 15.4355 8.83296 15.3639 8.94628C15.2683 9.09925 15.0713 9.17857 14.8862 9.17291C14.934 9.12192 14.9937 9.07659 15.0414 9.01993C15.1012 8.95761 15.1191 8.86696 15.0892 8.78764C15.0534 8.70832 14.9758 8.646 14.8862 8.64033C14.8265 8.64033 14.7608 8.646 14.719 8.69699C14.6593 8.78197 14.6653 8.89529 14.5876 8.96894C14.504 9.0426 14.3428 9.0086 14.307 8.90662C14.2592 8.74231 14.3368 8.56668 14.4563 8.45336H14.4682Z" fill="#D8B880"/>
<path d="M16.0924 8.28333C16.1521 8.31732 16.2058 8.35698 16.2536 8.40231C16.4626 8.6176 16.6119 8.88389 16.7074 9.16151C16.8328 9.58078 16.7612 10.0454 16.5104 10.408C16.3969 10.5666 16.2596 10.7083 16.0804 10.7932C16.0088 10.8272 15.9312 10.8499 15.8535 10.8726C15.7938 10.8896 15.764 10.9519 15.7281 10.9915C15.5908 11.1785 15.4773 11.3995 15.4833 11.6318C15.4833 11.7961 15.5669 11.9434 15.5789 12.1077C15.5968 12.374 15.4893 12.6459 15.2803 12.8272C15.1668 12.9292 15.0176 12.9802 14.8683 13.0085C14.8683 13.1388 14.8563 13.2748 14.7966 13.3938C14.719 13.5808 14.5518 13.7224 14.3607 13.7961C14.2413 13.8471 14.1159 13.8584 13.9845 13.8641C13.9607 13.9774 13.9368 14.0907 13.8711 14.187C13.686 14.476 13.3098 14.6346 12.9575 14.6006C12.8321 14.5893 12.7127 14.5439 12.5873 14.51C12.3902 14.4533 12.1812 14.4816 11.9961 14.5609C11.8707 14.6119 11.7633 14.6969 11.6498 14.7649C11.6498 14.6743 11.6379 14.5836 11.6498 14.4986C11.6558 14.4533 11.7035 14.425 11.7394 14.3966C11.9961 14.2323 12.3305 14.187 12.6231 14.272C12.7425 14.306 12.862 14.3513 12.9933 14.357C13.2083 14.3683 13.4233 14.272 13.5486 14.1077C13.6024 14.0397 13.6382 13.966 13.6681 13.8867C13.6143 13.8471 13.5486 13.8131 13.5248 13.7507C13.4949 13.6658 13.5427 13.5751 13.6084 13.5071C13.6681 13.4448 13.7457 13.3881 13.8353 13.3825C13.9308 13.3825 14.0025 13.4901 14.104 13.4731C14.2771 13.4505 14.4264 13.3032 14.4443 13.1388C14.4563 13.0369 14.3488 12.9632 14.3548 12.8669C14.3607 12.7762 14.4085 12.6856 14.4742 12.6176C14.5339 12.5609 14.6294 12.5439 14.7071 12.5723C14.7668 12.6063 14.8026 12.6743 14.8444 12.7253C15.0892 12.6459 15.2982 12.442 15.3281 12.1927C15.352 12.0284 15.2564 11.8867 15.2325 11.7281C15.1967 11.4901 15.2504 11.2295 15.4057 11.0369C15.4415 10.9972 15.4773 10.9519 15.5371 10.9462C15.6266 10.9349 15.7162 10.9405 15.7998 10.9009C15.7102 10.8952 15.6207 10.9009 15.5311 10.9066C15.4176 10.9122 15.3042 10.9066 15.1907 10.8896C15.0594 10.8726 14.928 10.8499 14.8086 10.7932C14.9161 10.7762 15.0235 10.7649 15.125 10.7366C15.2206 10.7083 15.3102 10.6686 15.3997 10.6403C15.6207 10.5553 15.8476 10.4703 16.0386 10.3343C16.2417 10.1927 16.3611 9.97738 16.4208 9.75075C16.4626 9.56944 16.4686 9.36548 16.3551 9.20117C16.3073 9.12752 16.2297 9.07653 16.1999 8.99721C16.1999 8.91789 16.2596 8.85556 16.2894 8.78757C16.3312 8.70825 16.3312 8.60627 16.2954 8.52695C16.2536 8.43063 16.17 8.35698 16.0983 8.28333H16.0924Z" fill="#D8B880"/>
<path d="M1.02705 8.60624C1.09273 8.47026 1.21215 8.36262 1.34949 8.30029C1.30172 8.48726 1.2659 8.68556 1.31366 8.8782C1.37338 9.09916 1.55848 9.28046 1.77942 9.35978C1.90481 9.40511 2.03618 9.42777 2.16755 9.46743C2.22129 9.48443 2.27503 9.51842 2.30488 9.56375C2.2392 9.60341 2.17352 9.6374 2.10186 9.64874C1.83913 9.68273 1.57043 9.61474 1.36143 9.46177C1.21813 9.35412 1.10467 9.20681 1.03899 9.04817C0.985249 8.90653 0.961364 8.74789 1.02108 8.60624H1.02705Z" fill="#D8B880"/>
<path d="M15.6803 8.30596C15.8416 8.37961 15.9789 8.51559 16.0267 8.6799C16.0744 8.91219 15.961 9.14449 15.8117 9.32579C15.6206 9.55808 15.3101 9.67706 14.9996 9.66573C14.9041 9.66007 14.7966 9.6374 14.7309 9.56941C14.7309 9.52975 14.7727 9.51842 14.8026 9.50143C14.9459 9.4391 15.1011 9.42211 15.2444 9.36545C15.4116 9.30313 15.555 9.18415 15.6445 9.03117C15.7042 8.92352 15.7281 8.79888 15.7281 8.67423C15.7281 8.54959 15.6923 8.42494 15.6803 8.30029V8.30596Z" fill="#D8B880"/>
<path d="M3.33788 8.49301C3.49911 8.35137 3.74393 8.30038 3.95292 8.37403C4.11414 8.43069 4.24551 8.56667 4.29328 8.72531C4.34702 8.92927 4.23954 9.1389 4.07831 9.26355C3.98277 9.09358 3.89918 8.90661 3.75587 8.76497C3.72004 8.73097 3.67227 8.69131 3.61853 8.71964C3.5409 8.75363 3.50508 8.83295 3.47522 8.90661C3.40954 9.11058 3.43342 9.33154 3.51702 9.52417C3.60659 9.7338 3.76184 9.92077 3.9768 10.0171C4.12011 10.0851 4.28133 10.0907 4.44256 10.0907C4.3709 10.1814 4.3291 10.3117 4.20968 10.3514C4.05443 10.391 3.88723 10.3627 3.74393 10.3004C3.60062 10.2381 3.49314 10.1304 3.38565 10.0284C3.3558 10.1474 3.32594 10.272 3.24234 10.3684C3.19458 10.425 3.12292 10.4703 3.0453 10.4817C2.89602 10.5043 2.73479 10.4817 2.60343 10.408C2.49595 10.3514 2.40638 10.272 2.29292 10.2267C2.20933 10.1927 2.11379 10.1757 2.02422 10.1927C1.94062 10.2097 1.86897 10.2664 1.82717 10.34C1.77343 10.4364 1.75552 10.544 1.73163 10.646C1.67789 10.6233 1.60624 10.612 1.58235 10.5553C1.5525 10.4703 1.54652 10.374 1.5525 10.2834C1.57041 10.1247 1.68983 9.9831 1.85106 9.93211C2.03616 9.86978 2.23321 9.90378 2.41235 9.97176C2.5676 10.0284 2.69897 10.1304 2.86019 10.1701C2.97364 10.1927 3.11098 10.1814 3.19458 10.0964C3.24832 10.0454 3.30206 9.97176 3.26623 9.89811C3.23637 9.83012 3.19458 9.76213 3.16472 9.69414C3.06918 9.47318 3.03932 9.22389 3.07515 8.98593C3.10501 8.80463 3.18263 8.62332 3.32594 8.49301H3.33788Z" fill="#D8B880"/>
<path d="M13.1128 8.36264C13.2919 8.31732 13.4949 8.34564 13.6442 8.45896C13.8174 8.58927 13.9189 8.79324 13.9487 8.9972C13.9786 9.23516 13.9487 9.48445 13.8412 9.70542C13.8054 9.77907 13.7636 9.8414 13.7338 9.92072C13.7218 9.94904 13.7338 9.98304 13.7517 10.0057C13.8114 10.102 13.9189 10.1813 14.0383 10.1757C14.1756 10.1813 14.301 10.1247 14.4145 10.0624C14.5458 9.99437 14.6832 9.93205 14.8384 9.90938C14.9579 9.89239 15.0833 9.89805 15.1907 9.94904C15.334 10.0114 15.4415 10.153 15.4535 10.306C15.4594 10.391 15.4594 10.4816 15.4296 10.5666C15.4057 10.6233 15.334 10.6289 15.2863 10.6459C15.2624 10.51 15.2385 10.3626 15.131 10.2663C15.0474 10.187 14.9161 10.1757 14.8086 10.204C14.6474 10.2437 14.5279 10.3626 14.3846 10.4306C14.2592 10.4873 14.1159 10.4986 13.9846 10.4816C13.895 10.4703 13.8233 10.4136 13.7756 10.3456C13.7039 10.255 13.674 10.136 13.6442 10.0284C13.4949 10.1813 13.3217 10.323 13.1008 10.3626C12.9933 10.3796 12.8679 10.3853 12.7664 10.3343C12.6828 10.2777 12.641 10.1813 12.5933 10.102C12.7007 10.0964 12.8142 10.0907 12.9217 10.068C13.0889 10.0284 13.2262 9.93205 13.3337 9.8074C13.4889 9.62043 13.5845 9.38247 13.5845 9.14451C13.5845 9.01986 13.5546 8.88955 13.477 8.78757C13.4471 8.75358 13.3994 8.71392 13.3516 8.72525C13.2919 8.74791 13.2561 8.7989 13.2143 8.84423C13.1128 8.97454 13.0411 9.12751 12.9635 9.27482C12.8082 9.16151 12.7067 8.96321 12.7366 8.77624C12.7664 8.58927 12.9217 8.43063 13.1128 8.37964V8.36264Z" fill="#D8B880"/>
<path d="M2.35861 9.47885C2.44221 9.46185 2.53178 9.45052 2.61537 9.46751C2.74674 9.50151 2.86019 9.5865 2.95573 9.67715C3.0035 9.72247 3.06321 9.77346 3.09307 9.83579C3.12293 9.89811 3.06321 9.96043 3.0035 9.97176C2.92588 9.98876 2.84228 9.9491 2.78257 9.90944C2.61537 9.79613 2.47804 9.64315 2.35861 9.48451V9.47885Z" fill="#D8B880"/>
<path d="M14.0562 9.68845C14.1637 9.59214 14.2891 9.49015 14.4443 9.46749C14.516 9.45049 14.5876 9.46749 14.6533 9.48449C14.6294 9.52415 14.6056 9.56947 14.5697 9.60347C14.4682 9.71678 14.3607 9.8301 14.2294 9.91508C14.1697 9.95474 14.098 9.98307 14.0204 9.96607C13.9666 9.95474 13.9129 9.90942 13.9248 9.85276C13.9428 9.78477 13.9965 9.73378 14.0502 9.68845H14.0562Z" fill="#D8B880"/>
<path d="M7.96556 10.0511C8.06707 9.96043 8.18649 9.86978 8.3298 9.85278C8.3298 9.9661 8.33577 10.0851 8.3298 10.1984C8.27606 10.2267 8.21635 10.2494 8.17455 10.289C8.12081 10.3344 8.10887 10.4194 8.12678 10.4817C8.1447 10.5497 8.20441 10.6007 8.27606 10.6233C8.35369 10.6517 8.44326 10.6573 8.53282 10.6573C8.62239 10.6573 8.71196 10.646 8.78959 10.6063C8.8493 10.5723 8.89707 10.5213 8.90901 10.459C8.92095 10.391 8.89707 10.3117 8.84333 10.2664C8.79556 10.2324 8.74182 10.2097 8.68807 10.1871C8.6821 10.0794 8.68807 9.97176 8.68807 9.86978C8.74779 9.86978 8.81944 9.86411 8.87318 9.89811C9.10606 10.0284 9.27922 10.2607 9.30908 10.5157C9.32699 10.6686 9.27325 10.8386 9.14189 10.9349C9.05829 10.9973 8.93887 11.0086 8.83735 11.0199C8.78959 11.0936 8.74182 11.1672 8.65822 11.2069C8.55671 11.2522 8.42534 11.2522 8.3298 11.1842C8.26412 11.1389 8.22829 11.0709 8.18649 11.0086C8.09095 10.9973 7.9775 10.9973 7.89988 10.9406C7.79239 10.8669 7.73268 10.7423 7.72671 10.6177C7.7088 10.4024 7.81031 10.1871 7.97153 10.0398L7.96556 10.0511Z" fill="#D8B880"/>
<path d="M1.19422 10.9065C1.28379 10.9235 1.37933 10.9235 1.47487 10.9405C1.52861 10.9462 1.57041 10.9915 1.60027 11.0312C1.78537 11.2522 1.83911 11.5581 1.76149 11.8244C1.72566 11.9547 1.66595 12.0793 1.68983 12.2153C1.72566 12.459 1.93465 12.6516 2.1735 12.7252C2.2153 12.6742 2.24515 12.6119 2.2989 12.5779C2.37055 12.5383 2.47206 12.5609 2.53177 12.6119C2.6094 12.6799 2.66314 12.7762 2.66314 12.8725C2.66314 12.9575 2.57954 13.0255 2.57357 13.1105C2.57357 13.2012 2.62134 13.2861 2.68702 13.3541C2.75271 13.4221 2.84227 13.4788 2.94378 13.4788C3.02141 13.4675 3.08112 13.4051 3.15875 13.3881C3.24234 13.3881 3.314 13.4335 3.37371 13.4788C3.45134 13.5411 3.52299 13.6374 3.49911 13.7394C3.48716 13.8131 3.40954 13.8414 3.3558 13.881C3.40357 14 3.46925 14.1133 3.57076 14.1983C3.72004 14.3173 3.92306 14.374 4.11414 14.3456C4.25745 14.3286 4.38881 14.255 4.53809 14.238C4.80083 14.204 5.08745 14.2493 5.30838 14.3966C5.34421 14.4193 5.38601 14.4476 5.38601 14.4929C5.39198 14.5893 5.38601 14.6912 5.38601 14.7876C5.29644 14.7139 5.20687 14.6403 5.09939 14.5836C4.95011 14.5043 4.78291 14.4703 4.61572 14.4816C4.4545 14.4929 4.31119 14.5609 4.15594 14.5893C3.76781 14.6629 3.33788 14.4873 3.13486 14.1643C3.07515 14.0737 3.05127 13.9717 3.03335 13.8641C2.92587 13.8641 2.81242 13.8527 2.70494 13.8187C2.46609 13.7451 2.26307 13.5638 2.18544 13.3371C2.14364 13.2295 2.14364 13.1162 2.13767 13.0085C2.04213 12.9915 1.94062 12.9689 1.85106 12.9179C1.58832 12.7706 1.41516 12.4816 1.41516 12.187C1.41516 12.068 1.45099 11.9547 1.48084 11.8414C1.52861 11.6771 1.52264 11.4958 1.46293 11.3371C1.40322 11.1728 1.30171 11.0255 1.18228 10.9009L1.19422 10.9065Z" fill="#D8B880"/>
<path d="M2.54372 12.1814C2.60343 12.4363 2.74077 12.6743 2.91393 12.8782C3.16472 13.1729 3.48717 13.4278 3.86335 13.5638C4.13206 13.6545 4.43062 13.6828 4.69932 13.5865C4.97399 13.4958 5.18299 13.2579 5.23076 12.9859C5.26061 12.8216 5.21881 12.6516 5.14119 12.4986C5.08745 12.3967 5.02774 12.2947 4.92623 12.2267C4.83069 12.1587 4.70529 12.1304 4.58587 12.153C4.51421 12.1644 4.4545 12.2097 4.39479 12.255C4.35896 12.1757 4.31716 12.0964 4.25148 12.0341C4.1858 11.9661 4.1022 11.9264 4.0186 11.8811C4.0604 11.8188 4.10817 11.7564 4.12011 11.6771C4.144 11.5411 4.09026 11.3995 3.98278 11.3088C3.7917 11.1445 3.54091 11.0369 3.27817 11.0539C2.99156 11.0765 2.71091 11.2522 2.59746 11.5071C2.48998 11.7168 2.48401 11.9547 2.5258 12.1814H2.54372ZM3.55285 11.3088C3.38566 11.3088 3.21249 11.3315 3.07515 11.4222C2.93782 11.5071 2.86019 11.6488 2.81839 11.7961C2.78854 11.9094 2.79451 12.0227 2.78854 12.136C2.78257 11.9434 2.76465 11.7394 2.86616 11.5638C2.93782 11.4278 3.0871 11.3428 3.23638 11.3032C3.33789 11.2748 3.44537 11.2975 3.55285 11.3032V11.3088ZM3.52896 11.4788C3.63048 11.4901 3.72601 11.5355 3.78573 11.6148C3.82753 11.6658 3.8335 11.7338 3.81558 11.7904C3.76184 11.8301 3.69019 11.8301 3.63048 11.8528C3.43343 11.9037 3.2722 12.0794 3.26026 12.272C3.23638 12.5043 3.36774 12.7423 3.58271 12.8613C3.7081 12.9349 3.86335 12.9519 4.01263 12.9292C4.16788 12.9066 4.30522 12.8046 4.3709 12.6743C4.40673 12.6006 4.43062 12.527 4.4545 12.4533C4.52018 12.4533 4.58587 12.442 4.64558 12.4703C4.71126 12.5043 4.765 12.5666 4.78889 12.6346C4.8486 12.8159 4.78889 13.0369 4.62169 13.1502C4.43659 13.2862 4.1858 13.2975 3.96486 13.2579C3.60659 13.1955 3.27817 12.9802 3.09307 12.6799C2.96767 12.4703 2.89602 12.221 2.92587 11.9831C2.94379 11.8358 3.00947 11.6884 3.12889 11.5921C3.24235 11.5015 3.3976 11.4675 3.54091 11.4845L3.52896 11.4788ZM4.05443 12.255C4.144 12.3967 4.03055 12.6006 3.85738 12.629C3.76781 12.646 3.65436 12.6176 3.60659 12.5383C3.52896 12.4023 3.61256 12.2154 3.76781 12.17C3.86932 12.136 4.00069 12.1587 4.05443 12.255ZM4.99191 12.9292C4.98594 13.0879 4.87846 13.2409 4.72918 13.3145C4.56795 13.3995 4.37688 13.3995 4.19774 13.3995C4.34702 13.3825 4.50227 13.3712 4.64558 13.3088C4.77695 13.2522 4.87248 13.1445 4.92623 13.0199C4.96802 12.9292 4.97997 12.8273 4.98594 12.7253C4.98594 12.7933 4.99191 12.8612 4.98594 12.9292H4.99191Z" fill="#D8B880"/>
<path d="M12.9455 11.3824C12.8679 11.4788 12.844 11.6091 12.8799 11.728C12.8978 11.7847 12.9336 11.8414 12.9635 11.8923C12.8858 11.932 12.8082 11.9717 12.7485 12.0283C12.6828 12.0906 12.641 12.17 12.5992 12.2493C12.5455 12.2096 12.4858 12.17 12.4201 12.1586C12.2708 12.1246 12.0976 12.1756 12.0021 12.2946C11.8707 12.4533 11.7871 12.6516 11.7752 12.8499C11.7692 13.0425 11.8468 13.2408 11.9902 13.3768C12.1394 13.5297 12.3484 13.6204 12.5694 13.6374C12.8202 13.6601 13.0769 13.6091 13.2978 13.5014C13.5725 13.3711 13.8114 13.1841 14.0084 12.9632C14.1637 12.7989 14.301 12.6119 14.3906 12.4079C14.4921 12.1643 14.5279 11.8867 14.4503 11.6374C14.3727 11.3768 14.1577 11.1671 13.883 11.0878C13.686 11.0312 13.465 11.0538 13.2799 11.1388C13.1545 11.1955 13.0291 11.2748 12.9455 11.3824ZM14.1398 11.5581C14.2473 11.7394 14.2532 11.9603 14.2114 12.1586C14.2234 12.0567 14.2353 11.9547 14.2114 11.8584C14.1756 11.6997 14.098 11.5354 13.9547 11.4391C13.7935 11.3314 13.5785 11.2918 13.3874 11.3371C13.4412 11.3258 13.4889 11.3088 13.5427 11.3031C13.7696 11.2635 14.0263 11.3654 14.1398 11.5581ZM13.4889 11.4788C13.6621 11.4674 13.8591 11.5241 13.9607 11.6657C14.104 11.847 14.1099 12.0906 14.0681 12.3059C13.9965 12.6629 13.7397 12.9802 13.3934 13.1388C13.2143 13.2238 13.0172 13.2748 12.8142 13.2691C12.6709 13.2691 12.5276 13.2295 12.4081 13.1558C12.2409 13.0482 12.1693 12.8385 12.2111 12.6572C12.229 12.5779 12.2887 12.4986 12.3663 12.4646C12.4261 12.4419 12.4917 12.4476 12.5514 12.4476C12.5813 12.5382 12.6052 12.6289 12.6589 12.7082C12.7366 12.8272 12.8739 12.9122 13.0172 12.9292C13.1486 12.9462 13.2919 12.9292 13.4113 12.8612C13.6442 12.7252 13.7755 12.4533 13.7218 12.1983C13.6919 12.0623 13.5845 11.9547 13.465 11.8867C13.3755 11.8357 13.274 11.8244 13.1784 11.8017C13.1784 11.745 13.1665 11.6884 13.1963 11.6374C13.2501 11.5354 13.3695 11.4844 13.483 11.4731L13.4889 11.4788ZM13.4173 12.3286C13.4531 12.4136 13.4412 12.5156 13.3695 12.5779C13.274 12.6686 13.1008 12.6459 13.0112 12.5552C12.9336 12.4872 12.9097 12.3739 12.9455 12.2833C12.9694 12.2266 13.0291 12.1813 13.0889 12.1643C13.2202 12.1246 13.3755 12.204 13.4232 12.3229L13.4173 12.3286ZM12.032 12.6912C12.032 12.8952 12.0976 13.1218 12.2768 13.2521C12.438 13.3711 12.653 13.3881 12.844 13.3994C12.647 13.4051 12.438 13.3994 12.2648 13.2974C12.1335 13.2295 12.0558 13.0991 12.032 12.9688C12.014 12.8782 12.02 12.7819 12.032 12.6912Z" fill="#D8B880"/>
<path d="M0.79417 11.1049C0.841939 11.0879 0.883738 11.1332 0.913594 11.1616C1.00913 11.2579 1.0987 11.3939 1.0569 11.5298C1.03899 11.6205 0.919565 11.6375 0.84791 11.5978C0.740429 11.5412 0.680717 11.4279 0.686688 11.3145C0.686688 11.2352 0.716544 11.1446 0.79417 11.0992V11.1049Z" fill="#D8B880"/>
<path d="M16.164 11.1105C16.164 11.1105 16.2178 11.0992 16.2357 11.1218C16.3312 11.2012 16.3431 11.3428 16.3073 11.4504C16.2715 11.5411 16.1819 11.6317 16.0685 11.6261C16.0028 11.6261 15.955 11.5694 15.9431 11.5128C15.9252 11.4221 15.967 11.3315 16.0147 11.2578C16.0506 11.2012 16.0983 11.1445 16.158 11.1105H16.164Z" fill="#D8B880"/>
<path d="M6.04881 12.0454C6.1145 11.9774 6.19809 11.9434 6.27572 11.8981C6.27572 12.034 6.27572 12.1757 6.3414 12.3003C6.44291 12.5156 6.65191 12.6629 6.87881 12.7423C7.09974 12.8216 7.35651 12.8499 7.58341 12.7706C7.65507 12.7423 7.72672 12.7083 7.76852 12.6403C7.7924 12.6006 7.75658 12.561 7.72672 12.5326C7.57744 12.391 7.37442 12.3173 7.19528 12.2097C7.29082 12.0964 7.42816 12.0114 7.58341 11.9944C7.79837 11.9717 8.0014 12.102 8.10291 12.2777C8.21636 12.5043 8.1447 12.7933 7.94765 12.9519C7.78046 13.0879 7.55356 13.1559 7.33262 13.1672C7.14154 13.1785 6.95046 13.1615 6.77133 13.0992C6.68773 13.0709 6.61011 13.0312 6.52651 12.9916C6.49665 12.9802 6.46083 12.9576 6.425 12.9746C6.32349 13.0086 6.23989 13.0992 6.22198 13.2012C6.19809 13.3145 6.23392 13.4335 6.29363 13.5355C6.35334 13.6431 6.425 13.7508 6.46083 13.8697C6.52651 14.068 6.5086 14.3117 6.35335 14.4703C6.22198 14.6006 6.01299 14.6176 5.83385 14.5836C5.76817 14.5723 5.75025 14.493 5.7204 14.4476C5.81594 14.4193 5.91148 14.3967 6.00104 14.357C6.08464 14.3173 6.1563 14.255 6.18018 14.17C6.21004 14.0737 6.18615 13.9661 6.14435 13.8754C6.09061 13.7678 6.00104 13.6884 5.95327 13.5808C5.90551 13.4788 5.88759 13.3712 5.89953 13.2635C5.89953 13.1842 5.93536 13.0992 6.00104 13.0425C6.10255 12.9462 6.25183 12.8952 6.39514 12.8952C6.19212 12.7593 6.01896 12.5553 5.99507 12.3117C5.9891 12.221 5.99507 12.1134 6.05479 12.0397L6.04881 12.0454Z" fill="#D8B880"/>
<path d="M10.7362 11.8981C10.8258 11.9491 10.9332 11.9944 10.993 12.0794C11.0467 12.1644 11.0407 12.2721 11.0228 12.3627C10.975 12.5837 10.8198 12.7763 10.6227 12.901C10.784 12.901 10.9571 12.9689 11.0527 13.0936C11.1363 13.2069 11.1243 13.3542 11.0945 13.4845C11.0527 13.6545 10.9094 13.7791 10.8496 13.9378C10.8078 14.0454 10.8078 14.1871 10.8974 14.2777C10.9989 14.3854 11.1542 14.4194 11.2975 14.4477C11.2736 14.4987 11.2497 14.544 11.2258 14.595C11.0766 14.612 10.9094 14.629 10.772 14.5553C10.6347 14.493 10.5511 14.3514 10.5272 14.2154C10.5033 14.0681 10.5391 13.9151 10.5929 13.7791C10.6466 13.6488 10.7422 13.5412 10.778 13.4052C10.8019 13.3089 10.8019 13.1956 10.7481 13.1106C10.7063 13.0426 10.6287 12.9859 10.5391 12.9916C10.4794 13.0029 10.4257 13.0369 10.372 13.0596C10.0913 13.1842 9.76886 13.2182 9.4703 13.1502C9.25534 13.0993 9.04634 12.9973 8.93289 12.8103C8.85527 12.6857 8.83138 12.527 8.86721 12.3854C8.90901 12.2211 9.05829 12.0851 9.22548 12.0284C9.44044 11.9491 9.69123 12.0511 9.81663 12.2267C9.64346 12.3061 9.46433 12.3854 9.31505 12.5044C9.28519 12.5327 9.24937 12.5553 9.23742 12.595C9.23145 12.6403 9.26131 12.6743 9.29713 12.697C9.3867 12.765 9.50613 12.799 9.61958 12.8103C9.8644 12.833 10.1152 12.7763 10.3302 12.663C10.4914 12.5723 10.6287 12.442 10.6944 12.2721C10.7422 12.1531 10.7422 12.0171 10.7422 11.8925L10.7362 11.8981Z" fill="#D8B880"/>
<path d="M6.43097 13.2692C6.43097 13.2182 6.49068 13.1729 6.54442 13.1729C6.60413 13.1842 6.6519 13.2238 6.6937 13.2635C6.78924 13.3485 6.87284 13.4391 6.93255 13.5525C6.98032 13.6488 6.96838 13.7508 6.95643 13.8527C6.89672 13.8301 6.84298 13.8017 6.80118 13.7621C6.69967 13.6714 6.59816 13.5864 6.51457 13.4788C6.47277 13.4165 6.43097 13.3485 6.43694 13.2692H6.43097Z" fill="#D8B880"/>
<path d="M10.3302 13.2635C10.372 13.2238 10.4197 13.1842 10.4794 13.1729C10.5391 13.1785 10.5929 13.2295 10.5929 13.2918C10.5929 13.3768 10.5391 13.4505 10.4914 13.5185C10.4138 13.6148 10.3182 13.6998 10.2227 13.7791C10.1809 13.8187 10.1271 13.8414 10.0734 13.8584C10.0615 13.7621 10.0495 13.6658 10.0913 13.5751C10.145 13.4561 10.2406 13.3598 10.3361 13.2692L10.3302 13.2635Z" fill="#D8B880"/>
<path d="M8.46118 13.4391C8.52686 13.4165 8.61643 13.4448 8.63434 13.5185C8.65226 13.6034 8.64629 13.6884 8.64031 13.7734C8.64031 13.8471 8.63434 13.9321 8.57463 13.9887C8.5388 14.0284 8.46715 14.0227 8.43729 13.983C8.38355 13.9264 8.37758 13.8471 8.37161 13.7734C8.37161 13.6941 8.35967 13.6148 8.37161 13.5355C8.37758 13.4901 8.41341 13.4561 8.46118 13.4391Z" fill="#D8B880"/>
<path d="M7.46996 13.5695C7.4819 13.5015 7.54162 13.4562 7.61327 13.4448C7.70284 13.4335 7.79241 13.4562 7.876 13.4902C8.05514 13.5752 8.18053 13.7508 8.19248 13.9378C8.20442 14.0851 8.18053 14.2437 8.08499 14.3684C8.03125 14.4363 7.95363 14.4703 7.86406 14.4817C7.72075 14.4987 7.55356 14.4817 7.44011 14.3854C7.31471 14.2777 7.26694 14.1134 7.28485 13.9548C7.33859 14.0057 7.38636 14.0681 7.44608 14.1191C7.53564 14.1927 7.67895 14.1757 7.75061 14.0964C7.81629 14.0341 7.8342 13.9208 7.77449 13.8528C7.70881 13.7905 7.60133 13.7848 7.5237 13.7338C7.47593 13.6941 7.46399 13.6318 7.47593 13.5752L7.46996 13.5695Z" fill="#D8B880"/>
<path d="M9.14191 13.4902C9.23147 13.4449 9.34493 13.4222 9.44047 13.4562C9.54198 13.4958 9.57183 13.6375 9.50615 13.7168C9.4345 13.7791 9.31507 13.7791 9.24939 13.8471C9.18371 13.9264 9.20759 14.0568 9.29119 14.1191C9.37478 14.1871 9.51212 14.1871 9.58975 14.1191C9.64349 14.0681 9.68529 14.0114 9.73903 13.9604C9.75694 14.1134 9.70917 14.2721 9.58975 14.3797C9.52406 14.442 9.4345 14.4817 9.34493 14.493C9.24342 14.5043 9.13594 14.5043 9.0404 14.459C8.96277 14.425 8.90903 14.3514 8.8732 14.2777C8.81946 14.1644 8.81349 14.0341 8.8314 13.9094C8.85529 13.7338 8.98068 13.5808 9.14191 13.4958V13.4902Z" fill="#D8B880"/>
<path d="M6.85491 13.9037C6.85491 13.9037 6.89671 13.9037 6.91462 13.9094C7.01613 14.0737 7.03405 14.2663 7.13556 14.4306C7.24901 14.6176 7.458 14.7535 7.69088 14.7649C7.85807 14.7819 8.02527 14.7422 8.18649 14.7195C8.12678 14.8385 8.04318 14.9518 7.91779 15.0142C7.8103 15.0708 7.68491 15.0708 7.57146 15.0482C7.35052 15.0085 7.14153 14.8952 6.99225 14.7365C6.84297 14.5666 6.75937 14.3399 6.76534 14.119C6.76534 14.0397 6.80714 13.966 6.84894 13.9037H6.85491Z" fill="#D8B880"/>
<path d="M10.1092 13.8981C10.1092 13.8981 10.1749 13.9208 10.1928 13.9548C10.2585 14.0681 10.2585 14.2097 10.2346 14.3344C10.1928 14.5157 10.1033 14.6913 9.95399 14.816C9.80471 14.9406 9.61363 15.0369 9.41658 15.0596C9.31507 15.0709 9.20759 15.0709 9.11205 15.0199C8.98665 14.9576 8.89111 14.85 8.83737 14.7253C8.96874 14.7366 9.09413 14.765 9.2255 14.765C9.37478 14.765 9.52406 14.7366 9.64945 14.663C9.76888 14.595 9.86442 14.4874 9.92413 14.3627C10.0018 14.2097 10.0197 14.0398 10.1152 13.8925L10.1092 13.8981Z" fill="#D8B880"/>
<path d="M5.41588 14.68C5.40394 14.4307 5.45171 14.1814 5.56516 13.9604C5.5771 14.0908 5.59501 14.2267 5.64876 14.3514C5.73832 14.561 5.82789 14.7706 5.94134 14.9689C6.0548 15.1559 6.22796 15.3202 6.4489 15.3995C6.61012 15.4562 6.78925 15.4902 6.96242 15.4732C7.08781 15.4619 7.21321 15.4222 7.30875 15.3429C7.36249 15.3032 7.40429 15.2466 7.46997 15.2239C7.5476 15.2069 7.60731 15.2636 7.67299 15.2976C7.75659 15.3486 7.86407 15.3712 7.95364 15.3372C8.05515 15.3032 8.1268 15.2239 8.20443 15.1616C8.13874 15.2749 8.02529 15.3542 7.91184 15.4222C7.60731 15.6148 7.24904 15.7621 6.87882 15.7735C6.46681 15.7905 6.03688 15.6602 5.73832 15.3882C5.6189 15.2749 5.51739 15.1446 5.46962 14.9916C5.43379 14.8953 5.42782 14.7876 5.42185 14.6857L5.41588 14.68Z" fill="#D8B880"/>
<path d="M11.4468 13.9604C11.5244 14.1078 11.5662 14.2721 11.5841 14.4364C11.602 14.629 11.608 14.8273 11.5363 15.0086C11.4527 15.2182 11.2915 15.3995 11.0945 15.5242C10.7063 15.7678 10.2048 15.8301 9.75692 15.7168C9.54792 15.6658 9.35087 15.5638 9.16577 15.4562C9.0344 15.3769 8.88512 15.2919 8.8075 15.1559C8.87915 15.2126 8.94483 15.2806 9.02843 15.3259C9.11203 15.3655 9.21354 15.3655 9.29116 15.3259C9.36282 15.2919 9.42253 15.2352 9.50613 15.2182C9.57181 15.2182 9.61361 15.2749 9.65541 15.3089C9.78677 15.4335 9.97188 15.4845 10.151 15.4789C10.4436 15.4675 10.7422 15.3599 10.9332 15.1446C11.0765 14.9859 11.1661 14.799 11.2497 14.612C11.2975 14.4987 11.3572 14.3854 11.3871 14.2664C11.4109 14.1701 11.4229 14.0681 11.4348 13.9661L11.4468 13.9604Z" fill="#D8B880"/>
<path d="M8.41341 14.4306C8.47909 14.4136 8.56269 14.4136 8.6224 14.4533C8.6642 14.4986 8.67017 14.5666 8.68809 14.6289C8.71197 14.7479 8.73586 14.8725 8.76571 14.9915C8.80751 15.1615 8.81348 15.3428 8.80751 15.5184C8.80154 15.6601 8.75974 15.8074 8.6642 15.9207C8.6224 15.9717 8.54478 16.017 8.47312 16C8.38355 15.9773 8.32981 15.898 8.28802 15.8244C8.19845 15.6601 8.19248 15.4731 8.21039 15.2918C8.22233 15.1275 8.26413 14.9745 8.29399 14.8159C8.3119 14.7252 8.32384 14.6289 8.34176 14.5382C8.3537 14.4986 8.37161 14.4476 8.41938 14.4363L8.41341 14.4306Z" fill="#D8B880"/>
<path d="M4.73514 14.9065C4.83665 14.8669 4.94414 14.9065 5.02773 14.9632C5.08744 15.0085 5.1591 15.0595 5.18298 15.1332C5.2009 15.1785 5.15313 15.2181 5.1173 15.2408C4.97399 15.3031 4.77694 15.2578 4.69335 15.1275C4.64558 15.0595 4.65752 14.9462 4.74111 14.9065H4.73514Z" fill="#D8B880"/>
<path d="M12.1215 14.9066C12.1872 14.8896 12.2708 14.8896 12.3186 14.9349C12.3723 14.9972 12.3604 15.0879 12.3186 15.1445C12.235 15.2579 12.0618 15.2975 11.9245 15.2465C11.8827 15.2295 11.8409 15.1955 11.8469 15.1502C11.8528 15.1049 11.8827 15.0709 11.9125 15.0369C11.9723 14.9802 12.0439 14.9292 12.1275 14.9009L12.1215 14.9066Z" fill="#D8B880"/>
</g>
<defs>
<clipPath id="clip0_144_2163">
<rect width="17" height="16" fill="white"/>
</clipPath>
</defs>
</svg>
