<svg width="14" height="14" viewBox="0 0 14 14" fill="none" xmlns="http://www.w3.org/2000/svg">
<path d="M12.47 6.63982L11.4 5.56982V3.22982H11.21C10.57 3.22982 10.05 2.70982 10.05 2.06982V1.87982H7.71L6.76 0.929824L6.64 0.819824L5.57 1.88982H3.23V2.07982C3.23 2.71982 2.71 3.23982 2.07 3.23982H1.88V5.57982L0.929998 6.52982L0.809998 6.64982L1.88 7.71982V10.0598H2.07C2.71 10.0598 3.23 10.5798 3.23 11.2198V11.4098H5.57L6.52 12.3598L6.64 12.4698L7.71 11.3998H10.05V11.2098C10.05 10.5698 10.57 10.0498 11.21 10.0498H11.4V7.70982L12.35 6.75982L12.47 6.63982ZM9.68 2.24982C9.77 2.94982 10.32 3.50982 11.02 3.58982V5.18982L8.08 2.24982H9.68ZM11.02 5.64982V7.61982L7.62 11.0198H5.65L2.25 7.61982V5.64982L5.65 2.24982H7.62L11.02 5.64982ZM6.64 1.26982L7.25 1.87982H6.04L6.65 1.26982H6.64ZM2.25 3.58982C2.95 3.49982 3.51 2.94982 3.59 2.24982H5.19L2.25 5.18982V3.58982ZM1.27 6.63982L1.88 6.02982V7.23982L1.27 6.62982V6.63982ZM3.59 11.0198C3.5 10.3198 2.95 9.75982 2.25 9.67982V8.07982L5.19 11.0198H3.59ZM6.64 12.0098L6.03 11.3998H7.24L6.63 12.0098H6.64ZM11.02 9.67982C10.32 9.76982 9.76 10.3198 9.68 11.0198H8.08L11.02 8.07982V9.67982ZM11.4 7.23982V6.02982L12.01 6.63982L11.4 7.24982V7.23982Z" fill="#7F191E"/>
<path d="M6.73 5.2599C6.93 4.9899 7.45 4.2399 7.45 3.8299C7.45 3.3199 7.09 2.8999 6.64 2.8999C6.19 2.8999 5.83 3.3199 5.83 3.8299C5.83 4.2499 6.37 4.9899 6.57 5.2599C6.61 5.3099 6.69 5.3099 6.72 5.2599H6.73Z" fill="#7F191E"/>
<path d="M6.55 8.00991C6.35 8.27991 5.83 9.02991 5.83 9.43991C5.83 9.94991 6.19 10.3699 6.64 10.3699C7.09 10.3699 7.45 9.94991 7.45 9.43991C7.45 9.01991 6.91 8.27991 6.71 8.00991C6.67 7.95991 6.59 7.95991 6.56 8.00991H6.55Z" fill="#7F191E"/>
<path d="M8.01 6.72983C8.28 6.92983 9.03 7.44983 9.44 7.44983C9.95 7.44983 10.37 7.08983 10.37 6.63983C10.37 6.18983 9.95 5.82983 9.44 5.82983C9.02 5.82983 8.28 6.36983 8.01 6.56983C7.96 6.60983 7.96 6.68983 8.01 6.71983V6.72983Z" fill="#7F191E"/>
<path d="M5.25999 6.54983C4.98999 6.34983 4.23999 5.82983 3.82999 5.82983C3.31999 5.82983 2.89999 6.18983 2.89999 6.63983C2.89999 7.08983 3.31999 7.44983 3.82999 7.44983C4.24999 7.44983 4.98999 6.90983 5.25999 6.70983C5.30999 6.66983 5.30999 6.58983 5.25999 6.55983V6.54983Z" fill="#7F191E"/>
<path d="M7.17 6.52999C7.17 6.22999 6.93 5.98999 6.63 5.98999C6.33 5.98999 6.09 6.22999 6.09 6.52999C6.09 6.82999 6.33 7.06999 6.63 7.06999C6.93 7.06999 7.17 6.82999 7.17 6.52999Z" fill="#7F191E"/>
<path d="M8.22999 4.69997C8.37999 4.48997 8.42999 4.26997 8.33999 4.20997C8.25999 4.14997 8.06999 4.26997 7.91999 4.48997C7.79999 4.65997 7.68999 5.03997 7.64999 5.17997C7.64999 5.20997 7.64999 5.21997 7.67999 5.19997C7.78999 5.10997 8.10999 4.87997 8.21999 4.70997L8.22999 4.69997Z" fill="#7F191E"/>
<path d="M7.81 5.43988C7.95 5.45988 8.34 5.49988 8.54 5.44988C8.79 5.39988 8.98 5.26988 8.96 5.16988C8.94 5.06988 8.72 5.02988 8.47 5.07988C8.27 5.11988 7.93 5.31988 7.81 5.39988C7.79 5.40988 7.79 5.42988 7.81 5.42988V5.43988Z" fill="#7F191E"/>
<path d="M4.84 4.32989C4.76 4.38989 4.8 4.60989 4.95 4.81989C5.07 4.98989 5.38 5.22989 5.49 5.30989C5.51 5.32989 5.53 5.30989 5.52 5.28989C5.48 5.14989 5.37 4.76989 5.25 4.59989C5.1 4.38989 4.92 4.26989 4.83 4.31989L4.84 4.32989Z" fill="#7F191E"/>
<path d="M4.63 5.57C4.83 5.61 5.22 5.57 5.36 5.56C5.39 5.56 5.39 5.54 5.36 5.53C5.24 5.46 4.9 5.26 4.7 5.21C4.45 5.16 4.23 5.2 4.21 5.3C4.19 5.4 4.37 5.53 4.63 5.58V5.57Z" fill="#7F191E"/>
<path d="M4.95 8.51993C4.8 8.72993 4.75 8.94993 4.84 9.00993C4.92 9.06993 5.11 8.94993 5.26 8.72993C5.38 8.55993 5.49 8.17993 5.53 8.03993C5.53 8.00993 5.53 7.99993 5.5 8.01993C5.39 8.10993 5.07 8.33993 4.96 8.50993L4.95 8.51993Z" fill="#7F191E"/>
<path d="M5.36 7.77999C5.22 7.75999 4.83 7.71999 4.63 7.76999C4.38 7.81999 4.19 7.94999 4.21 8.04999C4.23 8.14999 4.45 8.18999 4.7 8.13999C4.9 8.09999 5.24 7.89999 5.36 7.81999C5.38 7.80999 5.38 7.78999 5.36 7.78999V7.77999Z" fill="#7F191E"/>
<path d="M8.33999 8.8999C8.41999 8.8399 8.37999 8.61991 8.22999 8.40991C8.10999 8.23991 7.79999 7.99991 7.68999 7.91991C7.66999 7.89991 7.64999 7.91991 7.65999 7.93991C7.69999 8.07991 7.80999 8.45991 7.92999 8.62991C8.07999 8.83991 8.25999 8.95991 8.34999 8.90991L8.33999 8.8999Z" fill="#7F191E"/>
<path d="M8.55 7.65C8.35 7.61 7.96 7.65 7.82 7.66C7.79 7.66 7.79 7.68 7.82 7.69C7.94 7.76 8.28 7.96 8.48 8.01C8.73 8.06 8.95 8.02 8.97 7.92C8.99 7.82 8.81 7.69 8.55 7.64V7.65Z" fill="#7F191E"/>
<path d="M6.64 0C2.98 0 0 2.98 0 6.64C0 10.3 2.98 13.28 6.64 13.28C10.3 13.28 13.28 10.3 13.28 6.64C13.28 2.98 10.3 0 6.64 0ZM6.64 12.62C3.34 12.62 0.66 9.93 0.66 6.63C0.66 3.33 3.34 0.65 6.64 0.65C9.94 0.65 12.62 3.33 12.62 6.63C12.62 9.93 9.94 12.62 6.64 12.62Z" fill="#7F191E"/>
</svg>
