<svg width="42" height="42" viewBox="0 0 42 42" fill="none" xmlns="http://www.w3.org/2000/svg">
<path d="M29.5115 24.8477V10.5088L14.7729 12.6759V25.5695C14.1173 25.0024 13.2398 24.6518 12.2718 24.6518C10.2487 24.6518 8.60803 26.1697 8.60803 28.0414C8.60803 29.9132 10.2487 31.4311 12.2718 31.4311C14.2949 31.4311 15.7785 30.0506 15.9219 28.3005H15.9321V28.1252C15.9321 28.0967 15.9372 28.0699 15.9372 28.0399C15.9372 28.0098 15.9338 27.983 15.9321 27.9546V13.5904L28.3575 11.7629V22.6616C27.7036 22.0993 26.8295 21.7534 25.8666 21.7534C23.8435 21.7534 22.2028 23.2713 22.2028 25.143C22.2028 27.0148 23.8435 28.5327 25.8666 28.5327C27.8897 28.5327 29.5303 27.0148 29.5303 25.143C29.5303 25.0435 29.5235 24.9472 29.515 24.8492L29.5115 24.8477Z" fill="#D8B880" stroke="#D8B880" stroke-width="0.5" stroke-linejoin="round"/>
<path d="M21 41C32.0457 41 41 32.0457 41 21C41 9.9543 32.0457 1 21 1C9.9543 1 1 9.9543 1 21C1 32.0457 9.9543 41 21 41Z" stroke="#D8B880" stroke-width="2" stroke-miterlimit="10"/>
</svg>
