<svg width="42" height="42" viewBox="0 0 42 42" fill="none" xmlns="http://www.w3.org/2000/svg">
<path d="M29.5115 24.8486V10.5098L14.7729 12.6769V25.5705C14.1173 25.0034 13.2398 24.6528 12.2718 24.6528C10.2487 24.6528 8.60803 26.1707 8.60803 28.0424C8.60803 29.9141 10.2487 31.4321 12.2718 31.4321C14.2949 31.4321 15.7785 30.0516 15.9219 28.3015H15.9321V28.1261C15.9321 28.0977 15.9372 28.0708 15.9372 28.0408C15.9372 28.0108 15.9338 27.984 15.9321 27.9555V13.5914L28.3575 11.7639V22.6626C27.7036 22.1003 26.8295 21.7544 25.8666 21.7544C23.8435 21.7544 22.2028 23.2723 22.2028 25.144C22.2028 27.0157 23.8435 28.5336 25.8666 28.5336C27.8897 28.5336 29.5303 27.0157 29.5303 25.144C29.5303 25.0445 29.5235 24.9481 29.515 24.8502L29.5115 24.8486Z" fill="#D8B880" stroke="#D8B880" stroke-width="0.5" stroke-linejoin="round"/>
<path d="M21 41C32.0457 41 41 32.0457 41 21C41 9.9543 32.0457 1 21 1C9.9543 1 1 9.9543 1 21C1 32.0457 9.9543 41 21 41Z" stroke="#D8B880" stroke-width="2" stroke-miterlimit="10"/>
<path d="M8.67444 5.60449L34.7677 36.3024" stroke="#D8B880" stroke-width="2"/>
</svg>
